<?xml version="1.0" standalone="no"?>
<!DOCTYPE svg PUBLIC "-//W3C//DTD SVG 1.1//EN" "http://www.w3.org/Graphics/SVG/1.1/DTD/svg11.dtd" >
<svg xmlns="http://www.w3.org/2000/svg">
  <metadata>Created by iconfont</metadata>
  <defs>
  <font id="iconfont" horiz-adv-x="1024">
    <font-face
      font-family="iconfont"
      font-weight="400"
      font-stretch="normal"
      units-per-em="1024"
      ascent="896"
      descent="-128"
    />
      <missing-glyph />
      
      <glyph glyph-name="24gf-eyeHide" unicode="&#60064;" d="M76.86 224.246667A531.333333 531.333333 0 0 0 0.94 377.74a21.333333 21.333333 0 0 0 0 12.52 534 534 0 0 0 750.353333 320.953333L612.413333 572.3399999999999A212.3 212.3 0 0 1 512 597.333333a212.56 212.56 0 0 1-116.053333-34.3 21.333333 21.333333 0 0 1 23.24-35.786666 170.666667 170.666667 0 0 0 161.226666 13.086666L355.666667 315.58666700000003a170.973333 170.973333 0 0 0-5.213334 123.62 21.333333 21.333333 0 0 1-40.373333 13.8 214.253333 214.253333 0 0 1 13.58-169.42l-156.846667-156.846667a535.333333 535.333333 0 0 0-89.953333 97.506667z m946.2 153.493333A533.953333 533.953333 0 0 0 235.533333 77.33333300000004l-113.78-113.753333a21.333333 21.333333 0 0 0-30.173333 30.173333l810.666667 810.666667a21.333333 21.333333 0 1 0 30.173333-30.173333l-107.646667-107.64q2.42-1.753333 4.813334-3.513334a534 534 0 0 0 193.473333-272.833333 21.333333 21.333333 0 0 0 0-12.52zM725.333333 384a211.68 211.68 0 0 1-48.16 135.006667l-30.413333-30.42A169.8 169.8 0 0 0 682.666667 384c0-94.106667-76.56-170.666667-170.666667-170.666667a169.8 169.8 0 0 0-104.586667 35.906667l-30.42-30.413333A213.333333 213.333333 0 0 1 725.333333 384z"  horiz-adv-x="1024" />
      
      <glyph glyph-name="guanbi-" unicode="&#58903;" d="M512.3 832.1c-247.2 0-447.6-200.4-447.6-447.6S265.1-63 512.3-63s447.6 200.4 447.6 447.6S759.5 832.1 512.3 832.1z m201.4-591.4c15.9-15.9 15.9-41.7 0-57.5-15.9-15.9-41.7-15.9-57.5 0L512.3 327 368.4 183.2c-15.9-15.9-41.7-15.9-57.5 0-15.9 15.9-15.9 41.7 0 57.5l143.9 143.9-143.9 143.8c-15.9 15.9-15.9 41.7 0 57.5 15.9 15.9 41.7 15.9 57.5 0L512.3 442l143.8 144c15.9 15.9 41.7 15.9 57.5 0 15.9-15.9 15.9-41.7 0-57.5L569.8 384.6l143.9-143.9z"  horiz-adv-x="1024" />
      
      <glyph glyph-name="a-bianzu3beifen" unicode="&#58901;" d="M0 896m204.8 0l614.4 0q204.8 0 204.8-204.8l0-614.4q0-204.8-204.8-204.8l-614.4 0q-204.8 0-204.8 204.8l0 614.4q0 204.8 204.8 204.8ZM266.24 145.066667a58.641067 58.641067 0 0 0-43.4176 19.8656A71.68 71.68 0 0 0 204.8 212.923733V487.150933h614.4v-274.2272c0-17.954133-6.485333-35.2256-18.0224-47.991466A58.641067 58.641067 0 0 0 757.76 145.066667H266.24z m217.361067 114.824533c-4.778667-12.6976-2.048-27.306667 6.690133-37.000533a28.672 28.672 0 0 1 33.450667-7.3728 34.133333 34.133333 0 0 1 18.978133 31.402666c0 18.705067-13.7216 33.928533-30.72 33.928534a30.856533 30.856533 0 0 1-28.398933-20.957867z m135.918933 20.957867a30.856533 30.856533 0 0 1-28.398933-20.957867c-4.778667-12.6976-2.048-27.306667 6.690133-37.000533a28.672 28.672 0 0 1 33.450667-7.3728 34.133333 34.133333 0 0 1 18.978133 31.402666c0 18.705067-13.7216 33.928533-30.72 33.928534z m79.189333-20.957867c-4.778667-12.6976-2.184533-27.306667 6.621867-37.000533a28.672 28.672 0 0 1 33.450667-7.3728 34.133333 34.133333 0 0 1 18.978133 31.402666c0 18.705067-13.7216 33.928533-30.72 33.928534a30.856533 30.856533 0 0 1-28.398933-20.957867zM222.754133 603.067733A58.641067 58.641067 0 0 0 266.24 622.933333h491.52c16.315733 0 31.9488-7.168 43.4176-19.8656 11.605333-12.765867 18.0224-30.037333 18.0224-47.991466v-33.9968H204.8v33.9968c0 17.954133 6.485333 35.2256 18.0224 47.991466z"  horiz-adv-x="1024" />
      
      <glyph glyph-name="fenxiang-4" unicode="&#58900;" d="M926.495834 408.350442a36.571011 36.571011 0 1 0 73.142022 0v-304.709661c0-74.092868-60.049599-134.142467-134.142467-134.142467h-658.278191A134.069325 134.069325 0 0 0 73.147873 103.640781v621.707181C73.147873 799.367687 133.12433 859.417287 207.217198 859.417287h316.99752a36.571011 36.571011 0 0 0 0-73.142022H207.217198A60.927304 60.927304 0 0 1 146.289894 725.347962v-621.707181c0-33.64533 27.281974-61.000446 60.927304-61.000445h658.278191c33.64533 0 61.000446 27.281974 61.000445 61.000445V408.350442z m-48.12745 316.99752L775.823271 834.329573a36.571011 36.571011 0 1 0 53.247391 50.175427l160.619879-170.713478a36.571011 36.571011 0 0 0-26.623696-61.585581h-183.586473c-93.329219 0-169.982057-81.40707-169.982058-182.855054v-219.426063a36.571011 36.571011 0 0 0-73.142021 0v219.426063c0 140.871533 108.323333 255.997074 243.124079 255.997075h98.888012z"  horiz-adv-x="1024" />
      
      <glyph glyph-name="shiming-2" unicode="&#58899;" d="M813.176471 715.294118H210.823529c-66.499765 0-120.470588-53.970824-120.470588-120.470589v-421.647058c0-66.499765 53.970824-120.470588 120.470588-120.470589h602.352942c66.499765 0 120.470588 53.970824 120.470588 120.470589V594.823529c0 66.499765-53.970824 120.470588-120.470588 120.470589z m60.235294-542.117647c0-33.249882-26.985412-60.235294-60.235294-60.235295H210.823529c-33.249882 0-60.235294 26.985412-60.235294 60.235295V594.823529c0 33.249882 26.985412 60.235294 60.235294 60.235295h602.352942c33.249882 0 60.235294-26.985412 60.235294-60.235295v-421.647058zM686.802824 411.467294a105.411765 105.411765 0 1 1-168.899765 0A211.124706 211.124706 0 0 1 391.529412 218.352941a30.117647 30.117647 0 1 1 60.235294 0 150.588235 150.588235 0 0 0 301.17647 0 30.117647 30.117647 0 1 1 60.235295 0 211.124706 211.124706 0 0 1-126.373647 193.114353zM557.176471 474.352941a45.176471 45.176471 0 1 0 90.352941 0 45.176471 45.176471 0 0 0-90.352941 0zM240.941176 474.352941h180.705883a30.117647 30.117647 0 0 1 0 60.235294h-180.705883a30.117647 30.117647 0 0 1 0-60.235294z m120.470589-60.235294h-120.470589a30.117647 30.117647 0 0 1 0-60.235294h120.470589a30.117647 30.117647 0 0 1 0 60.235294z m-60.235294-120.470588h-60.235295a30.117647 30.117647 0 0 1 0-60.235294h60.235295a30.117647 30.117647 0 1 1 0 60.235294z"  horiz-adv-x="1024" />
      
      <glyph glyph-name="a-bianzu91" unicode="&#58896;" d="M730.251636 572.788364c-6.609455-6.749091-8.797091-15.825455-8.797091-24.808728l2.187637-338.478545c0-9.029818 2.187636-18.013091 8.797091-24.808727 13.172364-13.498182 32.907636-13.498182 46.08 0l164.677818 169.239272c2.187636 2.234182 4.375273 6.749091 6.609454 9.029819l2.187637 2.234181c4.375273 11.310545 2.187636 27.089455-6.609455 36.119273l-166.865454 169.239273c-15.36 15.778909-35.095273 13.498182-48.267637 2.234182zM125.160727 572.788364c-6.609455-6.749091-8.797091-15.825455-8.797091-24.808728l2.187637-338.478545c0-9.029818 2.187636-18.013091 8.797091-24.808727 13.172364-13.498182 32.907636-13.498182 46.08 0l164.677818 169.239272c2.187636 2.234182 4.375273 6.749091 6.609454 9.029819l2.187637 2.234181c4.375273 11.310545 2.187636 27.089455-6.609455 36.119273L173.428364 570.554182c-15.36 15.778909-35.095273 13.498182-48.267637 2.234182z"  horiz-adv-x="1024" />
      
      <glyph glyph-name="haoyourenzheng" unicode="&#58897;" d="M699.485091 566.023758C699.485091 696.599273 592.802909 802.909091 461.637818 802.909091s-237.785212-106.309818-237.785212-236.885333a236.295758 236.295758 0 0 1 90.174061-185.499152C166.849939 324.204606 62.060606 182.054788 62.060606 15.918545A82.075152 82.075152 0 0 1 144.228848-65.939394h282.003394c21.441939 0 38.787879 17.283879 38.787879 38.632727 0 21.348848-17.345939 38.632727-38.787879 38.632728H144.228848a4.592485 4.592485 0 0 0-4.592484 4.592484c0 172.683636 141.094788 313.219879 314.461091 313.219879h15.080727c1.613576 0 3.165091 0.093091 4.716606 0.310303 125.517576 6.361212 225.590303 110.002424 225.590303 236.575031z m-237.785212-159.619879c-88.374303 0-160.240485 71.586909-160.240485 159.619879S373.294545 725.643636 461.699879 725.643636s160.271515-71.586909 160.271515-159.619878-71.928242-159.619879-160.271515-159.619879z m258.482424-402.587152c-9.836606 0-19.300848 3.723636-26.530909 10.488243l-93.370182 87.381333a38.477576 38.477576 0 0 0-1.706667 54.582303 38.849939 38.849939 0 0 0 54.799516 1.706667l62.960484-58.895515 145.625213 179.044848a38.912 38.912 0 0 0 54.582303 5.709576c16.632242-13.436121 19.238788-37.763879 5.709575-54.365091l-171.907878-211.409455a38.787879 38.787879 0 0 0-27.461819-14.242909h-2.668606z"  horiz-adv-x="1024" />
      
      <glyph glyph-name="mima-3" unicode="&#58898;" d="M493.841067-93.866667C278.562133-93.866667 102.4 78.301867 102.4 288.733867v33.9968C102.4 412.023467 176.3328 486.4 269.858133 486.4H741.717333C822.272 486.4 887.466667 422.638933 887.466667 343.995733v-55.296C885.282133 78.336 709.154133-93.866667 493.841067-93.866667zM267.6736 422.638933c-56.5248 0-102.1952-44.6464-102.1952-99.908266v-33.9968c0-176.4352 145.681067-318.805333 326.178133-318.805334 180.5312 0 326.212267 142.370133 326.212267 318.805334v53.1456c0 44.612267-36.9664 78.6432-80.452267 78.6432H267.6736v2.116266zM684.168533 486.4c-17.408 0-32.631467 14.779733-32.631466 31.6416v128.682667c0 84.3776-69.597867 151.893333-156.603734 151.893333s-156.603733-67.515733-156.603733-151.893333v-128.682667c0-16.861867-15.223467-31.6416-32.631467-31.6416S273.066667 501.179733 273.066667 518.0416v128.682667C273.066667 764.8256 373.111467 861.866667 494.933333 861.866667S716.8 764.8256 716.8 646.724267v-128.682667c0-16.861867-15.223467-31.6416-32.631467-31.6416zM512 145.066667c-18.193067 0-34.133333 15.086933-34.133333 32.324266v140.151467c0 17.237333 15.940267 32.324267 34.133333 32.324267 18.193067 0 34.133333-15.086933 34.133333-32.324267v-140.151467c0-17.237333-15.940267-32.324267-34.133333-32.324266z"  horiz-adv-x="1024" />
      
      <glyph glyph-name="fuzhi-6" unicode="&#58895;" d="M839.981176 835.764706H332.498824c-51.742118 0-93.665882-41.923765-93.726118-93.665882v-114.085648H110.832941C66.258824 628.013176 30.117647 591.872 30.117647 547.358118v-534.467765C30.117647-31.623529 66.258824-67.764706 110.832941-67.764706h534.40753c44.574118 0 80.715294 36.141176 80.715294 80.715294v127.036236h114.025411c51.742118 0 93.665882 41.923765 93.665883 93.665882V742.098824C933.647059 793.840941 891.663059 835.764706 839.981176 835.764706z m-194.740705-843.053177H110.832941a20.178824 20.178824 0 0 0-20.178823 20.178824V547.358118c0 11.143529 9.035294 20.178824 20.178823 20.178823h534.467765c11.143529 0 20.178824-9.035294 20.178823-20.178823v-534.467765c0-11.143529-9.035294-20.178824-20.178823-20.178824z m228.894117 240.941177a33.189647 33.189647 0 0 0-33.129412-33.129412h-114.085647V547.297882c0 44.574118-36.141176 80.715294-80.715294 80.715294H299.369412V742.038588c0 18.311529 14.878118 33.189647 33.189647 33.189647h508.385882c18.371765 0 33.189647-14.878118 33.189647-33.129411v-508.506353zM512.542118 401.167059H244.916706a30.238118 30.238118 0 1 1-0.602353-60.476235h267.625412c15.902118 0 29.575529 12.047059 30.72 27.949176a30.238118 30.238118 0 0 1-30.117647 32.527059z m0-181.549177H244.916706a30.238118 30.238118 0 1 1-0.602353-60.476235h267.625412c15.902118 0 29.575529 12.047059 30.72 27.949177a30.238118 30.238118 0 0 1-30.117647 32.527058z"  horiz-adv-x="1024" />
      
      <glyph glyph-name="a-bianzu9" unicode="&#58888;" d="M500.227214-16.230352a422.098993 422.098993 0 0 0-340.570493 171.281365A418.012352 418.012352 0 0 0 216.256707 714.307915a38.363348 38.363348 0 0 0 51.338435-56.906484 341.592154 341.592154 0 0 1-46.281216-456.988696c112.382644-152.482814 328.719233-185.788943 482.223708-73.814964a340.928075 340.928075 0 0 1 136.85141 224.765288A340.110746 340.110746 0 0 1 777.659095 606.369494a328.463818 328.463818 0 0 1-45.872551 50.878688A38.312265 38.312265 0 1 0 782.767397 714.461164c20.535374-18.338804 39.58934-39.436091 56.651069-62.678865a416.224446 416.224446 0 0 0 76.62453-312.066169 417.14394 417.14394 0 0 0-167.347973-275.030979 420.566503 420.566503 0 0 0-248.518892-80.915503M508.962411 238.878249a38.312265 38.312265 0 0 0-38.312265 38.312265V753.182093a38.312265 38.312265 0 0 0 76.62453 0v-475.991579a38.312265 38.312265 0 0 0-38.312265-38.312265M508.962411 173.287651a38.159016 38.159016 0 0 0-27.074001 11.238265l-153.249059 153.249059a38.312265 38.312265 0 0 0 54.148001 54.199084l126.175059-126.175059 126.175059 126.175059a38.261182 38.261182 0 1 0 54.148001-54.199084l-153.24906-153.249059a38.159016 38.159016 0 0 0-27.074-11.238265"  horiz-adv-x="1024" />
      
      <glyph glyph-name="a-bianzu3" unicode="&#58894;" d="M512-128C229.6832-128 0 101.6832 0 384S229.6832 896 512 896s512-229.6832 512-512-229.6832-512-512-512zM757.691733 519.7824a36.522667 36.522667 0 0 1-51.712-0.273067l-266.581333-269.550933-118.033067 121.275733a36.5568 36.5568 0 1 1-52.462933-50.961066l144.042667-148.036267c0.068267-0.1024 0.2048-0.1024 0.273066-0.2048l0.170667-0.273067c2.321067-2.286933 5.188267-3.6864 7.850667-5.2224 1.467733-0.750933 2.594133-2.048 4.061866-2.628266a36.2496 36.2496 0 0 1 27.477334-0.068267c1.4336 0.580267 2.525867 1.774933 3.8912 2.491733 2.730667 1.536 5.597867 2.8672 7.918933 5.188267 0.1024 0.068267 0.136533 0.238933 0.238933 0.3072 0.068267 0.1024 0.170667 0.136533 0.273067 0.2048l292.864 296.004267c14.199467 14.404267 14.062933 37.546667-0.273067 51.746133z"  horiz-adv-x="1024" />
      
      <glyph glyph-name="youjiantou" unicode="&#58921;" d="M711.6 407.376L355.2 743.024a29.36 29.36 0 0 1-42.352 0 31.408 31.408 0 0 1 0-43.552L647.76 384 312.848 68.64a31.408 31.408 0 0 1 0-43.552 29.36 29.36 0 0 1 42.352 0l356.4 335.648a36.32 36.32 0 0 1 0 46.64z"  horiz-adv-x="1024" />
      
      <glyph glyph-name="fangdajing" unicode="&#58892;" d="M948.608 2.176l-195.968 195.968a386.048 386.048 0 0 1 87.808 245.568A388.672 388.672 0 0 1 452.224 832 388.672 388.672 0 0 1 64 443.712a388.608 388.608 0 0 1 388.224-388.224c93.056 0 178.56 32.96 245.568 87.808l195.968-195.968a38.72 38.72 0 0 1 27.456-11.328 38.72 38.72 0 0 1 27.392 66.176z m-806.976 441.6a311.04 311.04 0 0 0 310.592 310.592 311.04 311.04 0 0 0 310.592-310.656 311.04 311.04 0 0 0-310.592-310.592 311.04 311.04 0 0 0-310.592 310.592z"  horiz-adv-x="1024" />
      
      <glyph glyph-name="yinhangka-2" unicode="&#58889;" d="M855.578947 33.684211H168.421053C105.256421 33.684211 53.894737 83.806316 53.894737 145.461895V676.432842C53.894737 738.088421 105.256421 788.210526 168.421053 788.210526h687.157894C918.743579 788.210526 970.105263 738.088421 970.105263 676.432842v-530.970947C970.105263 83.806316 918.743579 33.684211 855.578947 33.684211zM168.421053 704.350316a28.348632 28.348632 0 0 1-28.618106-27.917474v-530.970947c0-15.413895 12.826947-27.917474 28.618106-27.917474h687.157894a28.348632 28.348632 0 0 1 28.618106 27.917474V676.432842a28.348632 28.348632 0 0 1-28.618106 27.917474H168.421053zM53.894737 572.631579h916.210526v-80.842105H53.894737zM569.182316 195.368421c-16.707368 0-30.234947 12.072421-30.234948 26.947368v53.894737c0 14.874947 13.527579 26.947368 30.234948 26.947369 16.707368 0 30.234947-12.072421 30.234947-26.947369v-53.894737c0-14.874947-13.473684-26.947368-30.181052-26.947368z m104.501895 0c-16.707368 0-30.234947 12.072421-30.234948 26.947368v53.894737c0 14.874947 13.527579 26.947368 30.234948 26.947369 16.707368 0 30.234947-12.072421 30.234947-26.947369v-53.894737c0-14.874947-13.527579-26.947368-30.234947-26.947368z m104.501894 0c-16.707368 0-30.234947 12.072421-30.234947 26.947368v53.894737c0 14.874947 13.473684 26.947368 30.181053 26.947369 16.707368 0 30.288842-12.072421 30.288842-26.947369v-53.894737c0-14.874947-13.527579-26.947368-30.234948-26.947368z"  horiz-adv-x="1024" />
      
      <glyph glyph-name="yanjing-3" unicode="&#58890;" d="M953.002667 365.021867a42.8032 42.8032 0 0 0 0-30.3104s-3.754667-11.400533-7.509334-15.1552c-3.6864-11.400533-11.0592-22.801067-18.432-37.956267-18.568533-30.3104-44.509867-68.266667-81.578666-109.9776C775.099733 91.9552 663.893333 8.533333 512 8.533333c-151.893333 0-263.099733 83.421867-333.482667 163.089067A762.538667 762.538667 0 0 0 96.938667 281.6l-18.568534 37.956267a54.613333 54.613333 0 0 0-7.3728 15.1552c-3.754667 7.509333-3.754667 18.978133 0 30.3104 0 0 3.6864 11.400533 7.3728 15.1552 3.754667 11.400533 11.127467 22.801067 18.568534 37.956266 18.500267 30.3104 44.4416 68.266667 81.5104 109.9776C248.900267 607.778133 360.106667 691.2 512 691.2c151.893333 0 263.099733-83.421867 333.482667-163.089067A762.538667 762.538667 0 0 0 927.061333 418.133333l18.568534-37.956266a54.613333 54.613333 0 0 0 7.3728-15.1552zM512 486.4c66.696533 0 126.020267-60.689067 126.020267-136.533333s-59.323733-136.533333-126.020267-136.533334c-66.696533 0-126.020267 60.689067-126.020267 136.533334S445.303467 486.4 512 486.4zM311.9104 349.866667c0-113.800533 88.951467-212.3776 200.0896-212.3776 111.138133 0 200.0896 98.577067 200.0896 212.3776 0 113.800533-88.951467 212.3776-200.0896 212.3776-111.138133 0-200.0896-98.577067-200.0896-212.3776z"  horiz-adv-x="1092" />
      
      <glyph glyph-name="a-35guanggaoxiaoshou" unicode="&#58891;" d="M870.115556 782.222222C923.704889 782.222222 967.111111 739.783111 967.111111 687.388444v-455.111111c0-25.144889-10.24-49.265778-28.444444-67.015111-18.147556-17.806222-42.780444-27.761778-68.551111-27.761778h-174.535112V42.666667h106.666667c16.099556 0 29.127111-12.743111 29.127111-28.444445s-13.084444-28.444444-29.127111-28.444444H278.641778a28.785778 28.785778 0 0 0-29.127111 28.444444c0 15.701333 13.084444 28.444444 29.127111 28.444445h106.666666v94.833777H210.773333c-25.770667 0-50.403556 9.955556-68.608 27.761778C124.017778 183.011556 113.777778 207.075556 113.777778 232.277333v455.111111C113.777778 739.726222 157.184 782.222222 210.773333 782.222222h659.342223z m-232.675556-739.555555v94.833777h-193.991111V42.666667h193.991111z m232.675556 682.666666H210.773333a38.456889 38.456889 0 0 1-38.684444-35.100444l-0.113778-2.844445v-455.111111c0-19.854222 15.644444-36.352 35.84-37.831111l2.958222-0.056889h659.342223a38.456889 38.456889 0 0 1 38.684444 35.043556l0.113778 2.844444v455.111111a38.286222 38.286222 0 0 1-35.84 37.831112L870.115556 725.333333zM445.44 592.213333l0.967111-2.275555 82.204445-223.402667a25.031111 25.031111 0 0 0-12.515556-31.288889 23.153778 23.153778 0 0 0-30.549333 11.491556l-0.910223 2.218666-19.000888 51.655112h-84.195556l-19.000889-51.655112a23.096889 23.096889 0 1 0-40.618667-7.054222 25.429333 25.429333 0 0 0-3.356444 24.632889L400.668444 589.937778a23.552 23.552 0 0 0 22.869334 15.758222 23.438222 23.438222 0 0 0 21.959111-13.482667z m216.462222 6.940445c60.700444 0 109.909333-55.011556 109.909334-122.88v-16.440889c0-67.868444-49.208889-122.88-109.909334-122.88h-80.668444c-16.156444 0-29.297778 14.677333-29.297778 32.768V566.385778c0 18.090667 13.084444 32.768 29.297778 32.768h80.668444z m0-49.152h-65.991111v-163.896889h65.991111c35.384889 0 64.284444 31.175111 65.877334 70.257778l0.056888 3.470222v16.384c0 39.594667-27.875556 71.850667-62.862222 73.671111l-3.072 0.113778zM399.530667 449.763556h48.014222l-24.007111 65.194666-24.007111-65.194666z"  horiz-adv-x="1024" />
      
      <glyph glyph-name="attention" unicode="&#58887;" d="M512 822.857143C269.385143 822.857143 73.142857 626.614857 73.142857 384s196.242286-438.857143 438.857143-438.857143 438.857143 196.242286 438.857143 438.857143-196.242286 438.857143-438.857143 438.857143z m62.683429-626.907429A62.902857 62.902857 0 0 0 512 133.12a62.902857 62.902857 0 0 0-62.683429 62.756571V384A62.902857 62.902857 0 0 0 512 446.683429 62.902857 62.902857 0 0 0 574.683429 384v-188.050286zM512 509.366857a62.902857 62.902857 0 0 0-62.683429 62.683429A62.902857 62.902857 0 0 0 512 634.88a62.902857 62.902857 0 0 0 62.683429-62.756571 62.902857 62.902857 0 0 0-62.683429-62.683429z"  horiz-adv-x="1024" />
      
      <glyph glyph-name="jiaoyiguanli" unicode="&#58882;" d="M907.328 618.816a415.296 415.296 0 0 1-30.464 46.72l32.32-11.776a29.696 29.696 0 0 1 20.352 55.872l-167.552 60.992a29.696 29.696 0 0 1-39.488-32.64c1.024-8.512 5.76-16.512 13.44-21.504A355.328 355.328 0 0 0 900.608 416c0-196.608-159.936-356.544-356.48-356.544a29.76 29.76 0 0 1 0-59.52 414.592 414.592 0 0 1 294.208 121.856A414.592 414.592 0 0 1 960 416c0 71.04-18.24 141.184-52.736 202.816z m-555.264-503.36A355.328 355.328 0 0 0 187.52 416c0 196.544 160 356.48 356.544 356.48a29.76 29.76 0 0 1 0 59.52 414.592 414.592 0 0 1-294.208-121.856A414.592 414.592 0 0 1 128 416a416.32 416.32 0 0 1 83.2-249.6l-32.32 11.776a29.696 29.696 0 0 1-20.352-55.872l167.552-60.992a29.696 29.696 0 0 1 39.488 32.704 29.696 29.696 0 0 1-13.44 21.44zM525.44 388.48l-22.528 10.24c-33.216 14.976-56.128 30.336-68.864 46.016a86.4 86.4 0 0 0-19.072 56.192c0 24.576 10.432 46.144 31.36 64.768 20.864 18.624 47.232 27.968 79.04 27.968v42.944h50.496v-44.288c59.52-5.952 92.224-35.456 98.112-88.64l-67.456-11.584c-3.648 24.064-13.888 38.144-30.72 42.24v-89.984c45.056-18.56 74.688-36.928 88.96-54.848 14.336-17.92 21.504-38.528 21.504-61.696 0-26.88-10.304-49.536-30.976-68.16-20.736-18.688-47.168-29.568-79.424-32.768v-44.992h-50.496v45.696c-67.712 6.784-105.216 39.552-112.448 98.176l74.24 15.68c0-28.16 12.8-46.4 38.208-54.528V388.48z m0 74.24V532.352a34.56 34.56 0 0 1-23.872-8.512 28.288 28.288 0 0 1-9.6-22.144c0-15.424 8.64-27.264 25.92-35.456l7.488-3.392z m50.432-95.36v-83.2c23.168 4.544 34.752 17.28 34.752 38.208 0 19.072-8.448 32.448-25.216 40.192l-9.6 4.8z"  horiz-adv-x="1024" />
      
      <glyph glyph-name="shouji-2" unicode="&#58883;" d="M512 87.943529c16.082824 0 30.117647 14.095059 30.117647 30.117647 0 16.082824-14.095059 30.117647-30.117647 30.117648s-30.117647-14.034824-30.117647-30.117648c0-16.022588 14.034824-30.117647 30.117647-30.117647zM708.367059 775.529412H315.632941c-57.825882-0.180706-104.628706-43.911529-104.809412-97.882353v-587.294118C210.823529 36.562824 257.987765-7.529412 315.632941-7.529412h392.734118c57.825882 0.180706 104.628706 43.911529 104.809412 97.882353v587.294118c-0.180706 53.970824-46.983529 97.701647-104.809412 97.882353zM752.941176 100.894118c-0.060235-26.563765-22.768941-48.128-50.718117-48.188236H321.776941c-28.009412 0.060235-50.657882 21.624471-50.718117 48.188236V173.176471h481.882352v-72.282353z m0 132.517647H271.058824V594.823529h481.882352v-361.411764z m0 421.647059H271.058824v20.058352c0.060235 22.166588 22.708706 40.116706 50.718117 40.176942h380.446118c28.009412-0.060235 50.657882-18.070588 50.718117-40.176942V655.058824z"  horiz-adv-x="1024" />
      
      <glyph glyph-name="weibiaoti--" unicode="&#58884;" d="M786.56 41.344h-37.312 14.784a23.936 23.936 0 0 1 22.592 23.936v-23.936z m-0.256 372.096v-37.312 14.784a23.936 23.936 0 0 1-23.872 22.528h23.872z m-520 0.384h37.312-14.784a23.936 23.936 0 0 1-22.528-23.936v23.936z m0.064-371.904v37.312-14.784a23.936 23.936 0 0 1 23.936-22.528h-23.936zM342.4 644.096c20.608 0 37.44-16.704 37.44-37.44v-155.904a37.44 37.44 0 1 0-74.88 0V606.72a37.504 37.504 0 0 0 37.44 37.44z m116.352-416.384c0 20.608 16.704 37.44 37.44 37.44h60.416a37.44 37.44 0 1 0 0-74.88h-60.416a37.504 37.504 0 0 0-37.44 37.44z m252.48 420.032c20.608 0 37.376-16.704 37.376-37.44v-21.376a37.44 37.44 0 1 0-74.816 0v21.376a37.504 37.504 0 0 0 37.44 37.44zM526.848 757.248a147.008 147.008 0 0 0 147.008-147.008h74.752a221.76 221.76 0 0 1-443.52 0h74.752a147.008 147.008 0 0 0 147.008 147.008z m333.952-740.8v416a62.08 62.08 0 0 1-59.2 55.68H254.08A62.208 62.208 0 0 1 192 426.112v-405.44c3.648-27.584 25.344-49.472 52.864-53.44h567.168a62.336 62.336 0 0 1 48.768 49.216z m-594.048 25.6V413.44h519.424v-371.328H266.752z"  horiz-adv-x="1024" />
      
      <glyph glyph-name="youxiang" unicode="&#58885;" d="M819.939556 668.444444H204.174222c-34.474667-0.284444-62.179556-31.744-61.952-70.257777v-428.373334C142.222222 131.015111 169.984 99.555556 204.117333 99.555556h615.765334c34.247111 0 61.895111 31.402667 61.895111 70.257777V598.129778c0 38.741333-27.648 70.257778-61.895111 70.257778V668.444444z m-14.791112-50.346666L559.559111 371.086222c-21.390222-21.674667-37.319111-32.426667-47.559111-32.426666-10.24 0-26.112 10.752-47.502222 32.426666L218.908444 618.097778h586.183112zM188.245333 185.457778V572.529778l191.829334-190.862222-191.829334-196.266667z m32.256-35.498667L413.013333 343.836444l31.573334-31.402666c18.318222-18.204444 40.903111-27.534222 67.413333-27.534222 26.737778 0 49.152 9.329778 67.527111 27.534222l31.573333 31.402666 192.512-193.991111H220.501333z m615.310223 35.498667L643.982222 381.724444l191.829334 190.805334v-387.072z"  horiz-adv-x="1024" />
      
      <glyph glyph-name="gicon" unicode="&#58886;" d="M872.768 454.08H462.4v-148.48h255.488c-8.896-48-35.84-88.576-76.608-115.84-34.368-22.976-78.272-36.544-129.92-36.544-99.84 0-184.32 67.456-214.592 158.208a232.576 232.576 0 0 0-11.968 72.896c0 25.28 4.416 49.92 11.968 72.896 30.336 90.56 114.816 158.08 214.72 158.08 56.32 0 106.816-19.392 146.56-57.408l110.08 110.08C701.568 730.112 614.912 768 511.488 768A383.36 383.36 0 0 1 128 384.192a383.36 383.36 0 0 1 383.488-383.68c103.616 0 190.4 34.368 253.824 92.992 72.512 66.816 114.368 165.184 114.368 282.112 0 27.2-2.368 53.312-6.912 78.464z"  horiz-adv-x="1024" />
      
    </font>
</defs>
</svg>
