<?xml version="1.0" encoding="UTF-8"?>
<svg width="42px" height="42px" viewBox="0 0 42 42" version="1.1" xmlns="http://www.w3.org/2000/svg" xmlns:xlink="http://www.w3.org/1999/xlink">
    <title>编组 5</title>
    <defs>
        <circle id="path-1" cx="21" cy="21" r="21"></circle>
        <filter x="-27.4%" y="-22.6%" width="154.8%" height="154.8%" filterUnits="objectBoundingBox" id="filter-2">
            <feOffset dx="0" dy="2" in="SourceAlpha" result="shadowOffsetOuter1"></feOffset>
            <feGaussianBlur stdDeviation="3.5" in="shadowOffsetOuter1" result="shadowBlurOuter1"></feGaussianBlur>
            <feColorMatrix values="0 0 0 0 0.835456295   0 0 0 0 0.835456295   0 0 0 0 0.835456295  0 0 0 1 0" type="matrix" in="shadowBlurOuter1"></feColorMatrix>
        </filter>
    </defs>
    <g id="页面-1" stroke="none" stroke-width="1" fill="none" fill-rule="evenodd">
        <g id="订单页面--请付款" transform="translate(-12.000000, -568.000000)">
            <g id="编组-5" transform="translate(12.000000, 568.000000)">
                <g id="椭圆形">
                    <use fill="black" fill-opacity="1" filter="url(#filter-2)" xlink:href="#path-1"></use>
                    <use fill="#14D081" fill-rule="evenodd" xlink:href="#path-1"></use>
                </g>
                <g id="anquan-2" transform="translate(12.000000, 10.000000)" fill="#FFFFFF" fill-rule="nonzero">
                    <path d="M0.8265,1.82599999 L9.5,0 L18.1735,1.82599999 C18.656355,1.92768786 19,2.3333923 19,2.802 L19,12.789 C19,14.7950504 17.9414674,16.6683107 16.1795556,17.781 L9.5,22 L2.82044444,17.781 C1.0588437,16.6685073 0.000506688427,14.795696 0,12.79 L0,2.802 C0,2.3333923 0.343645044,1.92768786 0.8265,1.82599999 Z M10.1698545,8.6121464 L10.1698545,5.5904149 C10.1696476,5.36705408 10.014816,5.1693947 9.78677398,5.10137079 C9.55873193,5.03334688 9.30970495,5.11053709 9.17063739,5.29235295 L5.28393621,10.3696841 C5.1643838,10.5263373 5.14858288,10.732154 5.24298463,10.9031039 C5.33738637,11.0740537 5.52619226,11.1815275 5.73231697,11.181646 L7.41567282,11.181646 C7.71989133,11.181646 7.96650915,11.4117268 7.96650915,11.6955459 L7.96650915,14.7172774 C7.96671606,14.9406382 8.12154761,15.1382976 8.34958966,15.2063215 C8.57763171,15.2743454 8.8266587,15.1971552 8.96572627,15.0153394 L12.8524274,9.93800818 C12.9719798,9.78135499 12.9877807,9.57553826 12.893379,9.40458844 C12.7989773,9.23363862 12.6101714,9.12616485 12.4040467,9.12604633 L10.7206908,9.12604633 C10.5746,9.12604633 10.4344926,9.07190345 10.3311907,8.97552852 C10.2278889,8.87915359 10.1698545,8.74844113 10.1698545,8.6121464 Z" id="形状"></path>
                </g>
            </g>
        </g>
    </g>
</svg>