<?xml version="1.0" encoding="UTF-8"?>
<svg width="25px" height="25px" viewBox="0 0 25 25" version="1.1" xmlns="http://www.w3.org/2000/svg" xmlns:xlink="http://www.w3.org/1999/xlink">
    <title>编组 5</title>
    <g id="页面-1" stroke="none" stroke-width="1" fill="none" fill-rule="evenodd">
        <g id="首页快捷区（我要买）" transform="translate(-338.000000, -254.000000)">
            <g id="切换状态icon" transform="translate(338.000000, 254.000000)">
                <g id="编组-2" transform="translate(13.000000, 12.411765) rotate(-270.000000) translate(-13.000000, -12.411765) translate(7.250000, 7.000000)" fill="#2CBC94" fill-rule="nonzero">
                    <g id="qiehuan">
                        <path d="M10.7479161,6.76510002 C10.8864008,6.75885727 11.0234491,6.79389322 11.1395573,6.8652218 C11.3120231,6.96940257 11.4277189,7.13785071 11.475147,7.3245643 C11.5249278,7.51593501 11.4994001,7.717803 11.4032863,7.89282307 L9.24746337,10.4472815 C9.04840906,10.8071787 8.60862118,10.9303015 8.26512673,10.7226164 C7.92163228,10.5149314 7.80378063,10.0549124 8.00211634,9.69501516 L9.22374932,8.2473083 L0.789451477,8.2473083 C0.354475338,8.2473083 0.0018575059,7.91535323 0.0018575059,7.50586591 C0.0018575059,7.09637858 0.354475338,6.76438976 0.789451477,6.76438976 L10.7119857,6.76438976 L10.7486347,6.76510002 L10.7479161,6.76510002 Z M0.75208388,4.05842939 C0.613599208,4.06467214 0.476550926,4.0296362 0.360442717,3.95830761 C0.189686304,3.85181282 0.0694037898,3.68717469 0.0248529503,3.49896511 C-0.0249278496,3.3075944 0.000599935695,3.10572641 0.0967137141,2.93070634 L2.25325523,0.376247889 C2.45159094,0.0163506706 2.89137882,-0.106772062 3.23487327,0.100912987 C3.57836772,0.308598036 3.69621937,0.768617037 3.49788366,1.12851426 L2.27625068,2.57622111 L10.7112671,2.57622111 C10.9926474,2.5762211 11.2526534,2.71753922 11.3933435,2.9469423 C11.5340337,3.17634538 11.5340337,3.45898163 11.3933435,3.68838471 C11.2526534,3.91778779 10.9926474,4.05913965 10.7112671,4.05913965 L0.788732869,4.05913965 L0.752802487,4.05842939 L0.75208388,4.05842939 Z" id="形状"></path>
                    </g>
                </g>
                <circle id="椭圆形" stroke="#333333" stroke-width="0.6" opacity="0.200000003" cx="12.5" cy="12.5" r="12.2"></circle>
            </g>
        </g>
    </g>
</svg>