<?xml version="1.0" encoding="UTF-8"?>
<svg width="15px" height="15px" viewBox="0 0 15 15" version="1.1" xmlns="http://www.w3.org/2000/svg" xmlns:xlink="http://www.w3.org/1999/xlink">
    <title>fenxiang_2</title>
    <g id="页面-1" stroke="none" stroke-width="1" fill="none" fill-rule="evenodd">
        <g id="我的广告--（广告详情）未接单" transform="translate(-348.000000, -59.000000)" fill="#666666" fill-rule="nonzero" stroke="#666666" stroke-width="0.2">
            <g id="fenxiang_2" transform="translate(348.000000, 59.000000)">
                <path d="M12.0394737,15 L2.96052631,15 C1.32637434,14.9978255 0.00217452992,13.6736257 0,12.0394737 L0,2.96052631 C0.00217452992,1.32637434 1.32637434,0.00217452992 2.96052631,0 L7.5,0 C7.82701071,0 8.09210526,0.265094557 8.09210526,0.592105265 C8.09210526,0.919115973 7.82701071,1.18421053 7.5,1.18421053 L2.96052631,1.18421053 C1.9803948,1.18638138 1.18638138,1.9803948 1.18421053,2.96052631 L1.18421053,12.0394737 C1.18638138,13.0196052 1.9803948,13.8136186 2.96052631,13.8157895 L12.0394737,13.8157895 C13.0196052,13.8136186 13.8136186,13.0196052 13.8157895,12.0394737 L13.8157895,7.5 C13.8157895,7.17298929 14.080884,6.90789474 14.4078947,6.90789474 C14.7349054,6.90789474 15,7.17298929 15,7.5 L15,12.0394737 C14.9978255,13.6736257 13.6736257,14.9978255 12.0394737,15 L12.0394737,15 Z" id="路径"></path>
                <path d="M7.57346209,8 C7.42179449,7.99945075 7.2764598,7.93911491 7.16898702,7.83208178 C7.06085785,7.72524996 7,7.57956515 7,7.42755151 C7,7.27553786 7.06085785,7.12985306 7.16898702,7.02302124 L14.0374315,0.153639371 C14.2629528,-0.0565323261 14.6143882,-0.0503308179 14.8323561,0.16766679 C15.0503239,0.385664398 15.0565246,0.737147756 14.8463816,0.962699905 L7.97793715,7.83208178 C7.87046437,7.93911491 7.72512969,7.99945075 7.57346209,8 Z" id="路径"></path>
                <path d="M14.4545455,1 L11.5454545,1 C11.2442083,1 11,0.776142372 11,0.5 C11,0.223857628 11.2442083,0 11.5454545,0 L14.4545455,0 C14.7557917,0 15,0.223857629 15,0.5 C15,0.776142371 14.7557917,1 14.4545455,1 L14.4545455,1 Z" id="路径"></path>
                <path d="M14.5,4 C14.2238576,4 14,3.75579168 14,3.45454545 L14,0.545454547 C14,0.244208319 14.2238576,0 14.5,0 C14.7761424,0 15,0.244208319 15,0.545454547 L15,3.45454545 C15,3.75579168 14.7761424,4 14.5,4 L14.5,4 Z" id="路径"></path>
            </g>
        </g>
    </g>
</svg>