<?xml version="1.0" encoding="UTF-8"?>
<svg width="14px" height="14px" viewBox="0 0 14 14" version="1.1" xmlns="http://www.w3.org/2000/svg" xmlns:xlink="http://www.w3.org/1999/xlink">
    <title>fuzhi-5</title>
    <g id="页面-1" stroke="none" stroke-width="1" fill="none" fill-rule="evenodd" opacity="0.5">
        <g id="首页-自选区页面（订单买家已付款未催促）" transform="translate(-350.000000, -340.000000)" fill="#666666" fill-rule="nonzero" stroke-width="0.2">
            <g id="编组-3" transform="translate(12.000000, 336.000000)">
                <g id="fuzhi-5" transform="translate(338.000000, 4.000000)">
                    <path d="M11.6800217,1.00144248 L4.99486839,1.00144248 C4.31318883,0.969603904 3.72869732,1.46855575 3.67489009,2.12824346 L3.67489009,2.94578658 L2.23807159,2.94578658 C1.55564375,2.94578443 1.00193809,3.48130796 1.0001972,4.14301264 L1.0001972,10.7752163 C0.994274555,11.0975316 1.12197223,11.4086742 1.35467134,11.6389125 C1.58737044,11.8691508 1.90561132,11.9992309 2.23807159,12 L9.08743272,12 C9.41989298,11.9992309 9.73813387,11.8691508 9.97083297,11.6389125 C10.2035321,11.4086742 10.3312298,11.0975316 10.3253071,10.7752163 L10.3253071,10.0434081 L11.6800217,10.0434081 C12.3605698,10.0753263 12.9445848,9.57813594 13,8.91966903 L13,2.12824346 C12.9461928,1.46855575 12.3617013,0.969603904 11.6800217,1.00144248 Z M9.69373854,10.7752163 C9.70062513,10.9353354 9.63979994,11.0912407 9.52534059,11.206849 C9.41088124,11.3224573 9.25270932,11.3877473 9.08743272,11.3876084 L2.23807159,11.3876084 C2.07279499,11.3877473 1.91462306,11.3224573 1.80016371,11.206849 C1.68570436,11.0912407 1.62487917,10.9353354 1.63176576,10.7752163 L1.63176576,4.14301264 C1.63350338,3.81952296 1.90444747,3.55817843 2.23807159,3.55817843 L9.08743272,3.55817843 C9.42105683,3.55817843 9.69200092,3.81952296 9.69373854,4.14301264 L9.69373854,10.7752163 Z M12.3684314,8.91966903 C12.3149742,9.24007814 12.0129857,9.46439358 11.6800217,9.43101621 L10.3253071,9.43101621 L10.3253071,4.14301264 C10.3235662,3.48130796 9.76986055,2.94578442 9.08743272,2.94578658 L4.30645866,2.94578658 L4.30645866,2.12824346 C4.35842755,1.80660029 4.66085985,1.58060996 4.99486839,1.61383432 L11.6800217,1.61383432 C12.0140302,1.58060995 12.3164625,1.80660028 12.3684314,2.12824346 L12.3684314,8.91966903 Z" id="形状" stroke="#666666"></path>
                    <path d="M7.66666667,6 L3.33333333,6 C3.14923842,6 3,6.22385763 3,6.5 C3,6.77614237 3.14923842,7 3.33333333,7 L7.66666667,7 C7.85076158,7 8,6.77614237 8,6.5 C8,6.22385763 7.85076158,6 7.66666667,6 L7.66666667,6 Z M7.66666666,8 L3.33333332,8 C3.14923841,8 3,8.22385764 3,8.5 C3,8.77614236 3.14923841,9 3.33333332,9 L7.66666666,9 C7.85076158,9 8,8.77614237 8,8.5 C8,8.22385763 7.85076158,8 7.66666666,8 L7.66666666,8 Z" id="形状" stroke="#FFFFFF"></path>
                </g>
            </g>
        </g>
    </g>
</svg>