<?xml version="1.0" encoding="UTF-8"?>
<svg width="18px" height="19px" viewBox="0 0 18 19" version="1.1" xmlns="http://www.w3.org/2000/svg" xmlns:xlink="http://www.w3.org/1999/xlink">
    <title>shanchu-7</title>
    <g id="页面-1" stroke="none" stroke-width="1" fill="none" fill-rule="evenodd">
        <g id="收款方式--银行卡" transform="translate(-346.000000, -56.000000)" fill="#666666" fill-rule="nonzero">
            <g id="shanchu-7" transform="translate(346.000000, 56.666667)">
                <path d="M3.80000001,4.48 L3,4.48 C2.66862915,4.48 2.4,4.23823376 2.4,3.94 C2.4,3.64176623 2.66862915,3.4 3,3.4 L16.2,3.4 C16.5313708,3.4 16.8,3.64176623 16.8,3.94 C16.8,4.23823376 16.5313708,4.48 16.2,4.48 L5.00000001,4.48 L5.00000001,14.02 C5,14.2586948 5.10535684,14.4876134 5.29289322,14.6563961 C5.48042959,14.8251788 5.73478351,14.92 6,14.92 L13.2,14.92 C13.4652165,14.92 13.7195704,14.8251788 13.9071068,14.6563961 C14.0946432,14.4876134 14.2,14.2586948 14.2,14.02 L14.2,6.1 C14.2,5.80176623 14.4686291,5.56 14.8,5.56 C15.1313708,5.56 15.4,5.80176623 15.4,6.1 L15.4,14.02 C15.4,15.1135 14.415,16 13.2,16 L6,16 C4.785,16 3.80000001,15.1135 3.80000001,14.02 L3.80000001,4.48 Z M8.00000001,2.67999999 C7.66862916,2.67999999 7.40000001,2.43823376 7.40000001,2.13999999 C7.40000001,1.84176623 7.66862916,1.59999999 8.00000001,1.59999999 L11.2,1.59999999 C11.5313708,1.59999999 11.8,1.84176623 11.8,2.13999999 C11.8,2.43823376 11.5313708,2.67999999 11.2,2.67999999 L8.00000001,2.67999999 L8.00000001,2.67999999 Z M7.40000001,7.53999999 C7.40000001,7.24176622 7.66862916,6.99999999 8.00000001,6.99999999 C8.33137086,6.99999999 8.60000001,7.24176622 8.60000001,7.53999999 L8.60000001,11.86 C8.60000001,12.1582338 8.33137086,12.4 8.00000001,12.4 C7.66862916,12.4 7.40000001,12.1582338 7.40000001,11.86 L7.40000001,7.53999999 Z M10.6,7.53999999 C10.6,7.24176622 10.8686291,6.99999999 11.2,6.99999999 C11.5313708,6.99999999 11.8,7.24176622 11.8,7.53999999 L11.8,11.86 C11.8,12.1582338 11.5313708,12.4 11.2,12.4 C10.8686291,12.4 10.6,12.1582338 10.6,11.86 L10.6,7.53999999 Z" id="形状"></path>
            </g>
        </g>
    </g>
</svg>