<?xml version="1.0" encoding="UTF-8"?>
<svg width="15px" height="15px" viewBox="0 0 15 15" version="1.1" xmlns="http://www.w3.org/2000/svg" xmlns:xlink="http://www.w3.org/1999/xlink">
    <title>编组 9</title>
    <g id="页面-1" stroke="none" stroke-width="1" fill="none" fill-rule="evenodd" opacity="0.699999988">
        <g id="首页快捷区（我要买）" transform="translate(-230.000000, -197.000000)" fill="#666666" fill-rule="nonzero">
            <g id="编组-12" transform="translate(223.000000, 192.000000)">
                <g id="提示icon" transform="translate(7.000000, 5.000000)">
                    <g id="tishi-3" transform="translate(2.857143, 2.857143)">
                        <path d="M5.06492873,9.02040818 L6.45215568,9.02040818 C6.52985794,9.02040818 6.59284807,8.96101737 6.59284807,8.88775511 L6.59284807,8.8832449 L6.55021828,7.71045918 C6.54518692,7.57229916 6.61656064,7.44157545 6.73874608,7.36516327 C7.79436107,6.70547959 8.44154606,5.59371429 8.44154606,4.37755102 C8.44154606,2.39942858 6.74085646,0.795918367 4.64285156,0.795918367 C2.54484666,0.795918367 0.844157061,2.39942858 0.844157061,4.37755102 C0.844157061,5.59397959 1.49176413,6.7060102 2.54751981,7.36556123 C2.66129053,7.43658661 2.73162659,7.55508744 2.736329,7.68366326 L2.78036572,8.8922653 C2.78294536,8.96376041 2.84518624,9.02040818 2.9210581,9.02040818 L4.2207744,9.02040818 L4.2207744,6.32622449 L3.20989958,5.31355102 C3.10655567,5.20999868 3.06965452,5.06232944 3.11309643,4.92616886 C3.15653835,4.79000829 3.27372347,4.68604241 3.4205093,4.65343417 C3.56729513,4.62082593 3.7213814,4.6645293 3.82472532,4.76808164 L4.66043811,5.60538776 L5.61925675,4.7515 C5.78872538,4.60057974 6.05586651,4.60776603 6.21593316,4.76755102 C6.37599982,4.92733602 6.36837801,5.17921239 6.19890938,5.33013265 L5.06492873,6.33988776 L5.06492873,9.02040818 Z M9.28570182,4.37755102 C9.28685227,5.7668681 8.58754722,7.07398819 7.40182931,7.89882653 L7.43658033,8.85591837 C7.44573741,9.10759035 7.34609203,9.35197681 7.16048743,9.53305331 C6.97488283,9.71412981 6.71923705,9.81632654 6.45215568,9.81632654 L2.92077672,9.81632654 C2.38999735,9.81632654 1.95469093,9.41974763 1.93649277,8.91959184 L1.89977206,7.90983673 C0.704750324,7.08587945 -0.00113169575,5.77341644 1.36198495e-06,4.37755102 C1.36198495e-06,1.95994898 2.07873277,0 4.64285156,0 C7.20697035,0 9.28570182,1.95994898 9.28570182,4.37755102 Z M3.37662006,11.1428571 C3.14351328,11.1428571 2.9545429,10.9646847 2.9545429,10.744898 C2.9545429,10.5251112 3.14351328,10.3469388 3.37662006,10.3469388 L5.90908306,10.3469388 C6.14218985,10.3469388 6.33116023,10.5251112 6.33116023,10.744898 C6.33116023,10.9646847 6.14218985,11.1428571 5.90908306,11.1428571 L3.37662006,11.1428571 Z" id="形状"></path>
                    </g>
                    <g id="dengpao" transform="translate(1.000000, 1.000000)">
                        <path d="M1.60952381,7.10158999 C1.60952381,6.87401968 1.42756027,6.68846122 1.20227277,6.68846122 L0.408558546,6.68846122 C0.182918463,6.68846122 0,6.87323317 0,7.10115963 C0,7.32908609 0.182918463,7.51385804 0.408558546,7.51385804 L1.20053922,7.51385804 C1.42582672,7.51385804 1.60779026,7.32917513 1.60779026,7.10160483 L1.60952381,7.10160483 L1.60952381,7.10158999 Z" id="路径"></path>
                        <path d="M2.1309595,2.56584151 L1.33724528,2.56584151 C1.11160519,2.56584151 0.928686731,2.75061346 0.928686731,2.97853992 C0.928686731,3.20646638 1.11160519,3.39123833 1.33724528,3.39123833 L2.12922595,3.39123833 C2.35451345,3.39123833 2.53648928,3.20655542 2.53648928,2.97898512 C2.53821054,2.75139997 2.356247,2.56584151 2.1309595,2.56584151 Z" id="路径备份" transform="translate(1.732588, 2.978540) rotate(-330.000000) translate(-1.732588, -2.978540) "></path>
                        <path d="M11.4181644,2.56584151 L10.6244502,2.56584151 C10.3988101,2.56584151 10.2158917,2.75061346 10.2158917,2.97853992 C10.2158917,3.20646638 10.3988101,3.39123833 10.6244502,3.39123833 L11.4164309,3.39123833 C11.6417184,3.39123833 11.8236942,3.20655542 11.8236942,2.97898512 C11.8254155,2.75139997 11.6434519,2.56584151 11.4181644,2.56584151 Z" id="路径备份-2" transform="translate(11.019793, 2.978540) scale(-1, 1) rotate(-330.000000) translate(-11.019793, -2.978540) "></path>
                        <path d="M12.591113,6.68846122 L11.7993632,6.68846122 C11.5735417,6.68846122 11.3904762,6.87323317 11.3904762,7.10115963 C11.3904762,7.32908609 11.5735417,7.51385804 11.7993632,7.51385804 L12.591113,7.51385804 C12.8169345,7.51385804 13,7.32908609 13,7.10115963 C13,6.87323317 12.8169345,6.68846122 12.591113,6.68846122 Z" id="路径"></path>
                        <path d="M6.92677886,1.22714979 L6.92677886,0.404140011 C6.91652739,0.170419142 6.7280715,-0.0103233712 6.50584522,0.000458349726 C6.29795939,0.0105385726 6.13160143,0.185501351 6.12201696,0.404140011 L6.12201696,1.22714979 C6.12201696,1.46100791 6.30161338,1.65079365 6.52397016,1.65079365 C6.74718244,1.65079365 6.92677886,1.46100791 6.92677886,1.22714979 Z" id="路径"></path>
                    </g>
                </g>
            </g>
        </g>
    </g>
</svg>