<?xml version="1.0" encoding="UTF-8"?>
<svg width="21px" height="21px" viewBox="0 0 21 21" version="1.1" xmlns="http://www.w3.org/2000/svg" xmlns:xlink="http://www.w3.org/1999/xlink">
    <title>编组 4备份</title>
    <g id="页面-1" stroke="none" stroke-width="1" fill="none" fill-rule="evenodd">
        <g id="首页-自选区页面（订单买家已付款未催促）" transform="translate(-347.000000, -55.000000)" fill="#666666" fill-rule="nonzero">
            <g id="编组-4备份" transform="translate(347.200375, 55.811904)">
                <g id="dianhua备份" transform="translate(3.000000, 1.593032)">
                    <path d="M1.45058347,11.0522392 C3.56012053,15.1493772 6.9030746,17.3261403 10.3596727,16.208566 C11.2582186,15.9182251 12.1203983,15.1141555 12.1203983,14.2085458 C12.1207013,12.6343589 10.4002816,9.49962955 9.1117093,9.25625091 C8.75016962,9.18834604 8.31317027,9.32479039 7.66312617,9.6186217 C7.59584888,9.64908369 7.52675328,9.68113224 7.45583938,9.71476737 L7.29401022,9.79282622 C7.13581767,9.86993314 7.00277833,9.93752068 6.77670239,10.054609 L6.67942307,10.1047443 L6.6748773,10.100302 C6.63397184,10.0587866 6.59464569,10.0155986 6.55699052,9.97083849 C6.37061424,9.75062366 6.15090237,9.42633038 5.92937218,9.04492084 L5.8651254,8.93259224 C5.56752945,8.40585362 5.3032691,7.83913365 5.13143926,7.36697277 L5.11537756,7.3215971 L5.52601149,7.13755589 C5.61086574,7.0994784 5.69178032,7.06171823 5.77663455,7.02205417 L6.01604473,6.90877363 L6.20029965,6.81897423 C6.66699799,6.58765348 6.94398647,6.42011252 7.09975462,6.24273487 C7.989815,5.22828708 6.22545287,0.329617957 4.77777891,0.0472098919 C3.91650835,-0.120965684 2.87583169,0.171913673 2.10396114,0.738950977 L2.0191069,0.803048073 C-0.407421364,2.69898977 -0.708047814,6.85895558 1.45058347,11.0522392 Z M5.68390098,3.3256818 C5.88603591,3.88637285 6.03907659,4.45214089 6.1105966,4.89859947 L6.12271863,4.9760237 C6.14212526,5.10196804 6.15265943,5.22923627 6.15423593,5.35679861 L6.15241762,5.41518408 L6.0760488,5.46119439 L6.03422779,5.48562744 C5.9002793,5.56178242 5.72299454,5.65285107 5.50934368,5.75566032 L5.15780469,5.92098008 C5.03355384,5.97809632 4.90809078,6.03521255 4.75444398,6.10343472 L4.1968304,6.35189034 L4.11379446,6.39250634 L4.08591379,6.40805464 L4.07015514,6.3915544 C4.03681955,6.36775597 4.0080297,6.45279571 3.78619647,7.11248821 C4.15440327,8.76378203 5.70996335,11.4434854 6.66517968,11.445072 L6.78306646,11.4314275 C6.80821968,11.4282544 6.82246308,11.4253986 6.83549425,11.4215909 L6.9161058,11.3914462 L6.98550443,11.3600322 L7.23552139,11.2331073 L7.66070177,11.0151137 C7.72616075,10.9824305 7.78798313,10.9516512 7.85707873,10.9183334 L8.05103127,10.8263128 L8.14376483,10.7837929 C8.32868895,10.6977196 8.51809205,10.6226094 8.71107605,10.5588184 L8.77865639,10.539145 C8.86048013,10.5162985 8.90896827,10.5077311 8.89684623,10.5055099 C9.50294795,10.6197424 10.9084979,13.1804536 10.9081978,14.2085458 C10.9081978,14.4243183 10.4511941,14.8507862 10.0020727,14.9961153 C7.19582174,15.9033115 4.38229751,14.0714669 2.51762557,10.4496629 C0.616284451,6.75709831 0.867513623,3.28665239 2.7443076,1.8203517 C3.26676729,1.41197062 4.01742429,1.18985192 4.55564262,1.29488233 C4.74050365,1.33105595 5.27932808,2.20239586 5.68390098,3.3256818 Z" id="形状"></path>
                </g>
                <g id="dianhua-2" transform="translate(14.294629, 4.367359) rotate(21.000000) translate(-14.294629, -4.367359) translate(11.486848, 0.767090)" stroke="#666666" stroke-width="0.2">
                    <path d="M1.82813562,5.95159442 C2.16781782,5.05615442 1.72192657,4.04902492 0.834248795,3.70620944 C0.611893523,3.62085525 0.523161488,3.42274078 0.608079391,3.20152208 C0.693022917,2.98023663 0.891837381,2.89250092 1.11462561,2.97802131 C2.40505492,3.47643427 3.053787,4.93625316 2.56059766,6.23214755 C2.47587415,6.45267497 2.27710033,6.54011993 2.05418839,6.45455206 C1.83226608,6.36936406 1.74355083,6.17194534 1.82813562,5.95159442 Z" id="路径" transform="translate(1.651054, 4.716330) rotate(-21.000000) translate(-1.651054, -4.716330) "></path>
                    <path d="M3.48030469,6.17621974 C4.23068307,4.22141723 3.2531089,2.02153086 1.30107279,1.2722144 C1.05582976,1.17807442 0.957996046,0.959509979 1.05171913,0.715353002 C1.14580975,0.470238546 1.36501698,0.372614175 1.61026001,0.466754154 C4.00822981,1.38724852 5.20994162,4.08775454 4.28908053,6.4866797 C4.19542578,6.7308629 3.97640468,6.82779817 3.73116165,6.7336582 C3.4850303,6.63917722 3.38658161,6.42037672 3.48030469,6.17621974 Z" id="路径" transform="translate(2.807781, 3.600269) rotate(-21.000000) translate(-2.807781, -3.600269) "></path>
                </g>
            </g>
        </g>
    </g>
</svg>