<?xml version="1.0" encoding="UTF-8"?>
<svg width="23px" height="23px" viewBox="0 0 23 23" version="1.1" xmlns="http://www.w3.org/2000/svg" xmlns:xlink="http://www.w3.org/1999/xlink">
    <title>编组</title>
    <defs>
        <polygon id="path-1" points="0 0 19 0 19 21 0 21"></polygon>
    </defs>
    <g id="页面-1" stroke="none" stroke-width="1" fill="none" fill-rule="evenodd">
        <g id="首页标签栏图标" transform="translate(-43.000000, -5.000000)">
            <g id="订单-选中icon" transform="translate(43.000000, 5.000000)">
                <g id="编组" transform="translate(3.000000, 1.000000)">
                    <mask id="mask-2" fill="white">
                        <use xlink:href="#path-1"></use>
                    </mask>
                    <g id="Clip-2"></g>
                    <path d="M8.80124752,21 L2.28734219,21 C1.02581186,21 0,19.9600126 0,18.6810495 L0,2.31895053 C0,1.03998736 1.02581186,0 2.28734219,0 L16.7130943,0 C17.9735334,0 19.0004365,1.03998736 19.0004365,2.31895053 L19.0004365,10.6598704 C19.0004365,16.3620989 14.4246608,21 8.80124752,21" id="Fill-1" fill="#F55251" mask="url(#mask-2)"></path>
                </g>
                <path d="M16,9 L7.82860147,9 C7.37118822,9 7,8.55231452 7,8.00063412 C7,7.44768548 7.37118822,7 7.82860147,7 L16,7" id="Fill-3" fill="#FEFEFE"></path>
                <path d="M13,15 L7.9277865,15 C7.41562009,15 7,14.5523145 7,14.0006341 C7,13.4476855 7.41562009,13 7.9277865,13 L13,13" id="Fill-5" fill="#FEFEFE"></path>
            </g>
        </g>
    </g>
</svg>