<?xml version="1.0" encoding="UTF-8"?>
<svg width="24px" height="23px" viewBox="0 0 24 23" version="1.1" xmlns="http://www.w3.org/2000/svg" xmlns:xlink="http://www.w3.org/1999/xlink">
    <title>编组</title>
    <g id="页面-1" stroke="none" stroke-width="1" fill="none" fill-rule="evenodd">
        <g id="首页自选区（我要买）" transform="translate(-129.000000, -736.000000)">
            <g id="订单未选中状态" transform="translate(129.500000, 736.000000)">
                <path d="M12.4049911,21 L3.76755258,21 C3.06785602,21 2.5,20.4544286 2.5,19.7821905 L2.5,3.21780952 C2.5,2.54557143 3.06785602,2 3.76755258,2 L19.2315057,2 C19.932144,2 20.5,2.54557143 20.5,3.21780952 L20.5,13.2226667 C20.5,17.5184762 16.875327,21 12.4049911,21 Z" id="Stroke-1" stroke="#999999" stroke-width="1.7"></path>
                <path d="M14.5,8.7 L6.32892433,8.7 C5.87113402,8.7 5.5,8.31942978 5.5,7.85 C5.5,7.38057022 5.87113402,7 6.32892433,7 L14.5,7" id="Fill-3" fill="#999999"></path>
                <path d="M11.5,14.7 L6.42812806,14.7 C5.91653055,14.7 5.5,14.3194298 5.5,13.85 C5.5,13.3805702 5.91653055,13 6.42812806,13 L11.5,13" id="Fill-5" fill="#999999"></path>
            </g>
        </g>
    </g>
</svg>