<?xml version="1.0" encoding="UTF-8"?>
<svg width="17px" height="17px" viewBox="0 0 17 17" version="1.1" xmlns="http://www.w3.org/2000/svg" xmlns:xlink="http://www.w3.org/1999/xlink">
    <title>zaixiankefu备份</title>
    <g id="页面-1" stroke="none" stroke-width="1" fill="none" fill-rule="evenodd">
        <g id="首页-自选区页面（订单买家已付款未催促）" transform="translate(-273.000000, -544.000000)" fill="#666666" fill-rule="nonzero">
            <g id="编组" transform="translate(263.000000, 535.000000)">
                <g id="zaixiankefu备份" transform="translate(10.000000, 9.000000)">
                    <path d="M8.5,0 C12.0882009,0.00400809691 14.9960197,2.93216133 15,6.54545454 L15,9.45454546 C15,9.85620709 14.6766501,10.1818182 14.2777778,10.1818182 C13.8789055,10.1818182 13.5555556,9.85620708 13.5555556,9.45454546 L13.5555556,6.54545454 C13.5555556,3.73382309 11.2921062,1.45454545 8.5,1.45454545 C5.70789376,1.45454545 3.44444444,3.73382309 3.44444444,6.54545454 L3.44444444,9.45454546 C3.44762846,12.2648478 5.70921369,14.5422483 8.5,14.5454545 C8.89887232,14.5454545 9.22222223,14.8710656 9.22222223,15.2727273 C9.22222223,15.6743889 8.89887232,16 8.5,16 C4.9117991,15.9959919 2.00398026,13.0678387 2,9.45454546 L2,6.54545454 C2.00398026,2.93216133 4.9117991,0.00400809691 8.5,0 Z" id="路径"></path>
                    <path d="M3,6 L3,6 C4.33333333,6 5,6.625 5,7.875 L5,10.125 C5,11.375 4.33333333,12 3,12 L3,12 C1.66666665,12 1,11.375 1,10.125 L1,7.875 C1,6.625 1.66666666,6 3,6 Z" id="路径"></path>
                    <path d="M14,6 L14,6 C15.3333333,6 16,6.625 16,7.875 L16,10.125 C16,11.375 15.3333333,12 14,12 L14,12 C12.6666667,12 12,11.375 12,10.125 L12,7.875 C12,6.625 12.6666667,6 14,6 Z" id="路径"></path>
                    <path d="M7,15.5 C7,16.3284271 7.67157288,17 8.5,17 C9.32842712,17 10,16.3284271 10,15.5 C10,14.6715729 9.32842712,14 8.5,14 C7.67157288,14 7,14.6715729 7,15.5 L7,15.5 Z" id="路径"></path>
                </g>
            </g>
        </g>
    </g>
</svg>