<?xml version="1.0" encoding="UTF-8"?>
<svg width="11px" height="11px" viewBox="0 0 11 11" version="1.1" xmlns="http://www.w3.org/2000/svg" xmlns:xlink="http://www.w3.org/1999/xlink">
    <title>changyong_zhushi</title>
    <g id="页面-1" stroke="none" stroke-width="1" fill="none" fill-rule="evenodd">
        <g id="订单页面--请付款（取消订单弹窗）" transform="translate(-58.000000, -348.000000)" fill="#666666" fill-rule="nonzero">
            <g id="changyong_zhushi" transform="translate(58.000000, 348.000000)">
                <path d="M5.5,11 C2.46860465,11 0,8.53139535 0,5.5 C0,2.46860465 2.46860465,0 5.5,0 C8.53139535,0 11,2.46860465 11,5.5 C11,8.53139535 8.53139535,11 5.5,11 L5.5,11 Z M5.5,0.76744186 C2.89069767,0.76744186 0.76744186,2.89069767 0.76744186,5.5 C0.76744186,8.10930233 2.89069767,10.2325581 5.5,10.2325581 C8.10930233,10.2325581 10.2325581,8.10930233 10.2325581,5.5 C10.2325581,2.89069767 8.10930233,0.76744186 5.5,0.76744186 Z" id="形状"></path>
                <path d="M5.5,8.73076923 C5.225,8.73076923 5,8.5483368 5,8.32536383 L5,4.13617464 C5,3.91320166 5.225,3.73076923 5.5,3.73076923 C5.775,3.73076923 6,3.91320166 6,4.13617464 L6,8.32536383 C6,8.5483368 5.775,8.73076923 5.5,8.73076923 Z M5.5,3.03846154 C5.225,3.03846154 5,2.88269231 5,2.69230769 L5,2.34615385 C5,2.15576923 5.225,2 5.5,2 C5.775,2 6,2.15576923 6,2.34615385 L6,2.69230769 C6,2.88269231 5.775,3.03846154 5.5,3.03846154 L5.5,3.03846154 Z" id="形状"></path>
            </g>
        </g>
    </g>
</svg>