<?xml version="1.0" encoding="UTF-8"?>
<svg width="38px" height="38px" viewBox="0 0 38 38" version="1.1" xmlns="http://www.w3.org/2000/svg" xmlns:xlink="http://www.w3.org/1999/xlink">
    <title>jingshi-2</title>
    <g id="页面-1" stroke="none" stroke-width="1" fill="none" fill-rule="evenodd">
        <g id="首页--初始弹窗" transform="translate(-170.000000, -348.000000)" fill="#FA4E4E" fill-rule="nonzero">
            <g id="编组-14" transform="translate(42.000000, 333.000000)">
                <g id="jingshi-2" transform="translate(128.000000, 15.000000)">
                    <path d="M35.5913537,26.7033285 L22.1208798,4.21418235 C20.4802452,1.26193922 17.8034202,1.26193922 16.1627856,4.21418235 L2.69231178,26.7033285 C1.05167713,29.6555716 2.43326419,32 5.7145335,32 L32.6554812,32 C35.8504012,32 37.2319883,29.5687409 35.5913537,26.7033285 Z M17.8897694,10.9869754 C17.8897694,10.29233 18.4942138,9.6845152 19.1850073,9.6845152 C19.8758008,9.6845152 20.4802452,10.29233 20.4802452,10.9869754 L20.4802452,20.1041968 C20.4802452,20.7988422 19.8758009,21.406657 19.1850073,21.406657 C18.4942138,21.406657 17.8897694,20.7988422 17.8897694,20.1041968 L17.8897694,10.9869754 L17.8897694,10.9869754 Z M19.0986581,26.9638205 C18.0624678,26.9638205 17.2853251,26.0955137 17.2853251,25.1403763 C17.2853251,24.1852388 18.148817,23.316932 19.0986581,23.316932 C20.0484992,23.316932 20.9119912,24.1852388 20.9119912,25.1403763 C20.9119912,26.0955137 20.1348484,26.9638205 19.0986581,26.9638205 L19.0986581,26.9638205 Z" id="形状"></path>
                </g>
            </g>
        </g>
    </g>
</svg>