<svg width="11px" height="11px" viewBox="0 0 11 11" version="1.1" xmlns="http://www.w3.org/2000/svg" xmlns:xlink="http://www.w3.org/1999/xlink">
    <path d="M5.5,0 C8.53757143,0 11,2.46242857 11,5.5 C11,8.53757143 8.53757143,11 5.5,11 C2.46242857,11 4.54747351e-13,8.53757143 4.54747351e-13,5.5 C4.54747351e-13,2.46242857 2.46242857,0 5.5,0 Z M8.36579,4.15534479 C8.20274507,3.94532422 7.89163788,3.90590183 7.66928136,4.07795494 L4.78132437,6.32249273 C4.75513476,6.34284501 4.72187484,6.35183943 4.68899724,6.3474606 C4.65611963,6.34308177 4.62637321,6.32569579 4.60642331,6.29919838 L4.60640783,6.29919838 L3.64500922,5.0221111 L3.62953125,5.0221111 C3.46650179,4.80428963 3.15989869,4.76365996 2.94850058,4.92924328 C2.7256952,5.09177744 2.6825581,5.40225004 2.84015479,5.62575192 L4.04195723,7.1982053 L4.04516117,7.2023534 C4.29660079,7.52660139 4.76329254,7.58560341 5.08754052,7.33414831 L8.28840016,4.85185343 L8.29466873,4.84673022 C8.49990661,4.67613204 8.53449988,4.37315078 8.36579,4.15534479 Z"></path>
</svg>