<?xml version="1.0" encoding="UTF-8"?>
<svg width="13px" height="14px" viewBox="0 0 13 14" version="1.1" xmlns="http://www.w3.org/2000/svg" xmlns:xlink="http://www.w3.org/1999/xlink">
    <title>renzheng-6</title>
    <g id="页面-1" stroke="none" stroke-width="1" fill="none" fill-rule="evenodd">
        <g id="我的页面" transform="translate(-284.000000, -70.000000)" fill-rule="nonzero">
            <g id="编组-17" transform="translate(278.910714, 61.000000)">
                <g id="renzheng-6" transform="translate(5.089286, 9.500000)">
                    <path d="M11.6733666,6.00033877 C11.6733666,5.25166146 12.1922952,4.40474143 11.9219917,3.75430684 C11.6422037,3.07948096 10.6659946,2.85047379 10.1579052,2.34232177 C9.64913828,1.83349221 9.42083676,0.857840337 8.746094,0.578017959 C8.09506208,0.308358621 7.24824636,0.82667368 6.50033873,0.82667368 C5.75175364,0.82667368 4.90493792,0.307681085 4.25458345,0.578017959 C3.57916324,0.857162801 3.35086172,1.83281468 2.84209484,2.34164423 C2.33332796,2.85047379 1.35779626,3.07880343 1.07800835,3.75362931 C0.808382226,4.40474143 1.32663344,5.25166146 1.32663344,5.99966123 C1.32663344,6.74833854 0.807704773,7.59525857 1.07800835,8.24569316 C1.35779626,8.92051904 2.33400542,9.14952621 2.84209484,9.65767823 C3.35086172,10.1665078 3.57916324,11.1421597 4.253906,11.421982 C4.90493792,11.6916414 5.75175364,11.1733263 6.49966127,11.1733263 C7.24824636,11.1733263 8.09506208,11.6923189 8.74541655,11.421982 C9.42015931,11.1421597 9.64913828,10.1658303 10.1572277,9.65767823 C10.6659946,9.14884868 11.6415263,8.92051904 11.9213142,8.24569316 C12.1922952,7.59525857 11.6733666,6.74833854 11.6733666,6.00033877 Z" id="路径" stroke="#CFEFE7" stroke-width="0.6"></path>
                    <path d="M5.95439843,9.05471955 C5.70400629,9.05471955 5.46408071,8.94771088 5.29178516,8.7596097 L3.69603851,7.01737476 C3.34822693,6.63699237 3.36271908,6.0359046 3.7290484,5.67475033 C4.09537773,5.31359606 4.67425858,5.32864416 5.02207016,5.70819054 L5.93588068,6.70638081 L7.96075597,4.36974614 C8.29890612,3.98016769 8.87698185,3.94839949 9.25297261,4.2995217 C9.62815825,4.6506439 9.65875279,5.25089567 9.32060264,5.64131012 L6.6339192,8.74121758 C6.46335462,8.93801155 6.22142497,9.05195021 5.96647522,9.05555556 C5.96244962,9.05471955 5.95842402,9.05471955 5.95439843,9.05471955 L5.95439843,9.05471955 Z" id="路径" stroke="#37BD99" stroke-width="0.8" fill="#CFEFE7"></path>
                </g>
            </g>
        </g>
    </g>
</svg>