<?xml version="1.0" encoding="UTF-8"?>
<svg width="17px" height="17px" viewBox="0 0 17 17" version="1.1" xmlns="http://www.w3.org/2000/svg" xmlns:xlink="http://www.w3.org/1999/xlink">
    <title>quanxian</title>
    <g id="页面-1" stroke="none" stroke-width="1" fill="none" fill-rule="evenodd">
        <g id="我的页面" transform="translate(-23.000000, -550.000000)" fill-rule="nonzero">
            <g id="编组-15" transform="translate(0.000000, 138.000000)">
                <g id="编组-8" transform="translate(0.000000, 259.000000)">
                    <g id="quanxian" transform="translate(23.000000, 153.000000)">
                        <path d="M6.50615231,10.3775584 C6.50615231,12.3222011 8.09407487,13.8986455 10.0528766,13.8986455 C12.0116784,13.8986455 13.5996009,12.3222011 13.5996009,10.3775584 C13.5996009,8.43291573 12.0116784,6.85647134 10.0528766,6.85647134 C8.09407487,6.85647134 6.50615231,8.43291573 6.50615231,10.3775584 Z" id="路径" fill="#6BD0B4" opacity="0.499139695"></path>
                        <path d="M8.50448952,16.2499994 C8.20618557,16.2499994 7.90788161,16.1856188 7.63052877,16.056859 C5.63717991,15.1327593 1,12.6001518 1,9.04637952 L1,3.87023291 C1,2.84906813 1.7402727,1.99331026 2.75989358,1.83582704 C3.95111407,1.65160138 5.73994014,1.22966521 7.49185234,0.262975754 C8.12437645,-0.0856663441 8.87861656,-0.0876472651 9.510143,0.257032991 C11.341869,1.25937902 13.0927835,1.67438197 14.2401064,1.8467221 C15.2597273,2.00024348 16,2.85600136 16,3.88112798 L16,9.04637952 C16,12.6437321 11.3628201,15.1505876 9.36847356,16.0608208 C9.0978162,16.1856616 8.80293274,16.2502293 8.50448952,16.2499994 Z M8.50748254,1.38714843 C8.39175258,1.38714843 8.27702029,1.41587178 8.17126704,1.47430895 C6.23777852,2.54103492 4.27835052,3.00457043 2.97439308,3.20563392 C2.64017293,3.25713786 2.39674094,3.53644772 2.39674094,3.87023291 L2.39674094,9.04736998 C2.39674094,11.8810775 6.85433987,14.1680508 8.22115065,14.8009551 C8.39973395,14.8841537 8.60525441,14.8841537 8.78483538,14.802936 C10.1496508,14.1799363 14.6032591,11.9216864 14.6032591,9.04736998 L14.6032591,3.88112798 C14.6032591,3.54635233 14.3628201,3.26803293 14.0305953,3.21751944 C12.7715331,3.02834149 10.8480213,2.57173919 8.83571666,1.47133757 C8.73509935,1.41651363 8.62225734,1.38757066 8.50748254,1.38714843 L8.50748254,1.38714843 Z" id="形状" fill="#333333"></path>
                        <path d="M9.8892584,10.0516969 L9.19587629,10.0516969 C9.19587629,9.72583542 9.19487862,9.42671635 9.19587629,9.18702491 C10.4499501,8.88493445 11.3847689,7.76175224 11.3847689,6.42463056 C11.3847689,4.85673158 10.0997672,3.58200891 8.52144995,3.58200891 C6.94213502,3.58200891 5.65813103,4.85772204 5.65813103,6.42463056 C5.65813103,7.74392395 6.56900565,8.8562111 7.79813768,9.17513938 C7.79614233,9.69810253 7.79913535,10.5944693 7.80512138,12.170292 C7.80611906,12.5526097 8.11938809,12.8606429 8.50349185,12.8606429 L8.50648487,12.8606429 C8.89258397,12.858662 9.20385767,12.5476574 9.20186232,12.1643492 L9.1988693,11.4373512 L9.8892584,11.4373512 C10.2753575,11.4373512 10.5876289,11.127337 10.5876289,10.7440288 C10.5876289,10.3607206 10.2753575,10.0516969 9.8892584,10.0516969 L9.8892584,10.0516969 Z M7.05387429,6.42463056 C7.05387429,5.62136709 7.71233788,4.96865362 8.52045228,4.96865362 C9.32956435,4.96865362 9.98703026,5.62235755 9.98703026,6.42463056 C9.98703026,7.22690357 9.32856668,7.8806075 8.52045228,7.8806075 C7.71233788,7.8806075 7.05387429,7.22789403 7.05387429,6.42463056 L7.05387429,6.42463056 Z" id="形状" fill="#333333"></path>
                    </g>
                </g>
            </g>
        </g>
    </g>
</svg>