<?xml version="1.0" encoding="UTF-8"?>
<svg width="17px" height="17px" viewBox="0 0 17 17" version="1.1" xmlns="http://www.w3.org/2000/svg" xmlns:xlink="http://www.w3.org/1999/xlink">
    <title>yingyong</title>
    <g id="页面-1" stroke="none" stroke-width="1" fill="none" fill-rule="evenodd">
        <g id="我的页面" transform="translate(-23.000000, -504.000000)" fill-rule="nonzero">
            <g id="编组-15" transform="translate(0.000000, 138.000000)">
                <g id="编组-8" transform="translate(0.000000, 259.000000)">
                    <g id="yingyong" transform="translate(23.000000, 107.000000)">
                        <path d="M11.3302515,6.86205494 L13.7464854,8.2966765 C14.0836683,8.4966564 14.2888919,8.86264127 14.2846771,9.25634178 L14.2574627,12.078772 C14.2535309,12.4723008 14.0414469,12.8339125 13.7009144,13.0277093 L11.2575318,14.4145426 C10.9165433,14.6077349 10.4990729,14.6036473 10.161888,14.4038147 L7.7456541,12.9691931 C7.40847121,12.7692132 7.20324762,12.4032283 7.20746249,12.0095278 L7.23467686,9.18709764 C7.23860869,8.79356881 7.45069263,8.4319571 7.79122512,8.23816033 L10.2346077,6.85132697 C10.5759056,6.65724833 10.992832,6.66212467 11.3302515,6.86205494 L11.3302515,6.86205494 Z" id="路径" fill="#6BD0B4" opacity="0.499139695"></path>
                        <path d="M14.2322532,2.79420548 L10.3722904,0.501346681 C9.26985944,-0.154034483 7.89109354,-0.167688257 6.77605782,0.465261706 L2.87246322,2.68204948 C1.7574275,3.31499944 1.05640939,4.50872942 1.04380464,5.79706055 L1.00017281,10.3057319 C0.987568058,11.594063 1.66531585,12.8014467 2.76774682,13.4558526 L6.62770959,15.7487114 C7.19007543,16.0822536 7.8232218,16.25 8.45636817,16.25 C9.06624422,16.25 9.67612028,16.0949321 10.2239422,15.7847964 L14.1275368,13.5689839 C15.2425725,12.9360339 15.9435906,11.742304 15.9561954,10.4539728 L15.9998272,5.94530153 C16.0124319,4.6569704 15.3346841,3.44958665 14.2322532,2.79420548 Z M14.5987606,10.4403191 C14.5910038,11.2419907 14.1546855,11.9851461 13.4604545,12.379155 L9.55685994,14.5949675 C8.86262901,14.9889764 8.0045363,14.9811743 7.31806214,14.5725363 L3.45809937,12.2796775 C2.77162521,11.8720148 2.34985083,11.120082 2.35750242,10.3184104 L2.40123943,5.80973905 C2.4089962,5.00806745 2.84531452,4.26491202 3.53954546,3.87090311 L7.44314006,1.6550906 C7.78346835,1.46198723 8.16355009,1.36543554 8.54363183,1.36543554 C8.93825752,1.36543554 9.3328832,1.46978938 9.68193786,1.6775218 L13.5419006,3.97038061 C14.2283748,4.3780433 14.6501492,5.12997615 14.6424976,5.93164775 L14.5987606,10.4403191 Z" id="形状" fill="#333333"></path>
                        <path d="M11.5018701,5.38549678 L8.4990304,7.16438851 L5.38662636,5.38062043 C5.06084201,5.19434394 4.6468244,5.30845048 4.46066192,5.63614107 C4.27449943,5.96383165 4.38891179,6.38027176 4.71469614,6.56752352 L7.769894,8.31813243 L7.769894,11.7627846 C7.769894,12.140214 8.07337764,12.4454733 8.4486114,12.4454733 C8.82384516,12.4454733 9.12732879,12.140214 9.12732879,11.7627846 L9.12732879,8.37664861 L12.1902834,6.56167191 C12.5131574,6.37043792 12.6208081,5.95216041 12.4307433,5.62736364 C12.2407024,5.3016236 11.8247456,5.19434394 11.5018701,5.38549678 L11.5018701,5.38549678 Z" id="路径" fill="#333333"></path>
                    </g>
                </g>
            </g>
        </g>
    </g>
</svg>