<?xml version="1.0" encoding="UTF-8"?>
<svg width="18px" height="17px" viewBox="0 0 18 17" version="1.1" xmlns="http://www.w3.org/2000/svg" xmlns:xlink="http://www.w3.org/1999/xlink">
    <title>dingdan-9</title>
    <g id="页面-1" stroke="none" stroke-width="1" fill="none" fill-rule="evenodd">
        <g id="我的页面" transform="translate(-23.000000, -411.000000)" fill-rule="nonzero">
            <g id="编组-15" transform="translate(0.000000, 138.000000)">
                <g id="编组-8" transform="translate(0.000000, 259.000000)">
                    <g id="dingdan-9" transform="translate(23.500000, 14.000000)">
                        <path d="M9.48425092,15.5049447 L11.4387387,15.5049447 C13.321288,15.5049447 14.8469469,13.961242 14.8469469,12.0564282 L14.8469469,9.50501745 C14.8469469,8.69015416 14.1938939,8.02937755 13.3885552,8.02937755 L11.4340674,8.02937755 C9.55151818,8.02937755 8.02585919,9.57308028 8.02585919,11.4778941 L8.02585919,14.0293048 C8.02585919,14.8441681 8.67891225,15.5049447 9.48425092,15.5049447 L9.48425092,15.5049447 Z" id="路径" fill="#6BD0B4" opacity="0.499139695"></path>
                        <path d="M11.2490824,16.1666667 L5.75091758,16.1666667 C3.40684017,16.1666667 1.5,14.2372746 1.5,11.8654741 L1.5,5.30119255 C1.5,2.92939209 3.40684017,1 5.75091758,1 L11.2490824,1 C13.5931598,1 15.5,2.92939209 15.5,5.30119255 L15.5,11.8654741 C15.5,14.2372746 13.5931598,16.1666667 11.2490824,16.1666667 Z M5.75091758,2.32344386 C4.12809476,2.32344386 2.80797464,3.65917685 2.80797464,5.30119255 L2.80797464,11.8654741 C2.80797464,13.5074898 4.12809476,14.8432228 5.75091758,14.8432228 L11.2490824,14.8432228 C12.8719052,14.8432228 14.1920254,13.5074898 14.1920254,11.8654741 L14.1920254,5.30119255 C14.1920254,3.65917685 12.8719052,2.32344386 11.2490824,2.32344386 L5.75091758,2.32344386 Z" id="形状" fill="#333333"></path>
                        <path d="M11.7087421,7.1672484 L5.36226226,7.1672484 C5.0007007,7.1672484 4.70827494,6.87136417 4.70827494,6.50552647 C4.70827494,6.13968877 5.0007007,5.84380454 5.36226226,5.84380454 L11.7087421,5.84380454 C12.0703036,5.84380454 12.3627294,6.13968877 12.3627294,6.50552647 C12.3627294,6.87136417 12.0693694,7.1672484 11.7087421,7.1672484 Z M9.63933934,11.0581734 L5.36226226,11.0581734 C5.0007007,11.0581734 4.70827494,10.7622891 4.70827494,10.3964514 C4.70827494,10.0306137 5.0007007,9.73472949 5.36226226,9.73472949 L9.63933934,9.73472949 C10.0009009,9.73472949 10.2933267,10.0306137 10.2933267,10.3964514 C10.2933267,10.7622891 10.0009009,11.0581734 9.63933934,11.0581734 Z" id="形状" fill="#333333"></path>
                    </g>
                </g>
            </g>
        </g>
    </g>
</svg>