<?xml version="1.0" encoding="UTF-8"?>
<svg width="17px" height="17px" viewBox="0 0 17 17" version="1.1" xmlns="http://www.w3.org/2000/svg" xmlns:xlink="http://www.w3.org/1999/xlink">
    <title>xinyongka</title>
    <g id="页面-1" stroke="none" stroke-width="1" fill="none" fill-rule="evenodd">
        <g id="我的页面" transform="translate(-23.000000, -458.000000)" fill-rule="nonzero">
            <g id="编组-15" transform="translate(0.000000, 138.000000)">
                <g id="编组-8" transform="translate(0.000000, 259.000000)">
                    <g id="xinyongka" transform="translate(23.000000, 61.000000)">
                        <path d="M14.5688787,7.96680846 L2.68204667,7.96680846 C2.20436017,7.96680846 1.81796897,7.57949508 1.81796897,7.10273076 L1.81796897,5.86701665 C1.81796897,5.38933015 2.20528235,5.00293894 2.68204667,5.00293894 L14.5688787,5.00293894 C15.0465652,5.00293894 15.4329564,5.39025232 15.4329564,5.86701665 L15.4329564,7.10273076 C15.4329564,7.57949508 15.0465652,7.96680846 14.5688787,7.96680846 Z" id="路径" fill="#6BD0B4" opacity="0.499139695"></path>
                        <path d="M14.8049554,4.77885049 C14.8012667,4.76686222 14.797578,4.75487395 14.7929671,4.74380785 L14.0017412,2.7399222 C13.7250888,2.03814725 13.1957605,1.49498635 12.5124291,1.20819001 C11.8456968,0.928771074 11.1125679,0.930615424 10.4467577,1.21372306 L2.92734514,4.40813625 C2.85172682,4.44041237 2.78625241,4.48559893 2.73092193,4.53908506 C1.71284105,4.98449545 1,6.00073198 1,7.18111561 L1,12.5269624 C1,14.1167916 2.29381112,15.4106027 3.88364032,15.4106027 L13.2123597,15.4106027 C14.8021889,15.4106027 16.096,14.1167916 16.096,12.5269624 L16.096,7.18111561 C16.096,6.17963387 15.5823487,5.2961905 14.8049554,4.77885049 Z M10.9511873,2.40148409 C11.2933141,2.25578048 11.6704836,2.25485831 12.0135326,2.39871756 C12.3731807,2.54903204 12.6525996,2.8385949 12.8010698,3.21299783 L13.229881,4.29747529 L6.4878617,4.29747529 L10.9511873,2.40148409 L10.9511873,2.40148409 Z M3.88364032,5.58851988 L13.2123597,5.58851988 C14.09027,5.58851988 14.8049554,6.30320528 14.8049554,7.18111561 L14.8049554,7.32128616 L2.29104459,7.32128616 L2.29104459,7.18111561 C2.29104459,6.30320528 3.00572999,5.58851988 3.88364032,5.58851988 Z M13.2123597,14.1195581 L3.88364032,14.1195581 C3.00572999,14.1195581 2.29104459,13.4048727 2.29104459,12.5269624 L2.29104459,8.61233076 L14.8049554,8.61233076 L14.8049554,12.5269624 C14.8049554,13.4048727 14.09027,14.1195581 13.2123597,14.1195581 Z" id="形状" fill="#333333"></path>
                        <path d="M7.34640635,9.56309288 L4.11879487,9.56309288 C3.76191326,9.56309288 3.47327257,9.85173357 3.47327257,10.2086152 C3.47327257,10.5654968 3.76191326,10.8541375 4.11879487,10.8541375 L7.34640635,10.8541375 C7.70328797,10.8541375 7.99192865,10.5654968 7.99192865,10.2086152 C7.99192865,9.85173357 7.70236579,9.56309288 7.34640635,9.56309288 Z" id="路径" fill="#34332E"></path>
                    </g>
                </g>
            </g>
        </g>
    </g>
</svg>