<?xml version="1.0" encoding="UTF-8"?>
<svg width="17px" height="17px" viewBox="0 0 17 17" version="1.1" xmlns="http://www.w3.org/2000/svg" xmlns:xlink="http://www.w3.org/1999/xlink">
    <title>shezhi-4</title>
    <g id="页面-1" stroke="none" stroke-width="1" fill="none" fill-rule="evenodd">
        <g id="我的页面" transform="translate(-23.000000, -596.000000)" fill-rule="nonzero">
            <g id="编组-15" transform="translate(0.000000, 138.000000)">
                <g id="编组-8" transform="translate(0.000000, 259.000000)">
                    <g id="shezhi-4" transform="translate(23.000000, 199.000000)">
                        <path d="M6.28350291,10.0796502 C6.28350291,11.9407116 7.80677048,13.4494 9.68581624,13.4494 C11.564862,13.4494 13.0881296,11.9407116 13.0881296,10.0796502 C13.0881296,8.21858872 11.564862,6.70990033 9.68581624,6.70990033 C7.80677048,6.70990033 6.28350291,8.21858872 6.28350291,10.0796502 Z" id="路径" fill="#2CBC94" opacity="0.499139695"></path>
                        <path d="M8.45636817,16 C7.8222522,16 7.18910584,15.8357859 6.62770959,15.5063974 L2.76774682,13.2486939 C1.66531585,12.6033613 0.987568058,11.4154501 1.00017281,10.1468723 L1.04380464,5.70733014 C1.05640939,4.43875234 1.7574275,3.26332522 2.87246322,2.64007995 L6.77605782,0.45824137 C7.89109354,-0.165003894 9.26985944,-0.151559466 10.3722904,0.492812756 L14.2322532,2.75051632 C15.3346841,3.39584886 16.0124319,4.5837601 15.9998272,5.8523379 L15.9561954,10.29188 C15.9435906,11.5604579 15.2425725,12.735885 14.1275368,13.3591302 L10.2239422,15.5409688 C9.67708988,15.84827 9.06624422,16 8.45636817,16 Z M8.54460143,1.34365298 C8.16451969,1.34365298 7.78540755,1.43872429 7.44410966,1.62886691 L3.54051505,3.81166581 C2.84628412,4.19963359 2.40996579,4.93139459 2.40220902,5.72077457 L2.35847201,10.1603167 C2.35082042,10.9496967 2.7725948,11.6901005 3.45906896,12.0915128 L7.31903174,14.3492163 C8.0055059,14.7506285 8.8635986,14.7592714 9.55782954,14.3713036 L13.4614241,12.189465 C14.1556551,11.8014972 14.5919734,11.0697362 14.5997302,10.2803563 L14.6434672,5.8408141 C14.6511188,5.05143412 14.2293444,4.31103027 13.5428702,3.90961807 L9.68290746,1.65095419 C9.3328832,1.44640682 8.93922711,1.34365298 8.54460143,1.34365298 Z" id="形状" fill="#333333"></path>
                        <path d="M8.5,11.102387 C6.77314903,11.102387 5.36820403,9.7108887 5.36820403,8.00056541 C5.36820403,6.29024212 6.77314903,4.89874384 8.5,4.89874384 C10.226851,4.89874384 11.631796,6.29024212 11.631796,8.00056541 C11.631796,9.7108887 10.226851,11.102387 8.5,11.102387 Z M8.5,6.24318662 C7.52167736,6.24318662 6.72563882,7.03160629 6.72563882,8.00056541 C6.72563882,8.96952453 7.52167736,9.7579442 8.5,9.7579442 C9.47832264,9.7579442 10.2743612,8.96952453 10.2743612,8.00056541 C10.2743612,7.03160629 9.47832264,6.24318662 8.5,6.24318662 Z" id="形状" fill="#333333"></path>
                    </g>
                </g>
            </g>
        </g>
    </g>
</svg>