<svg width="22px" height="22px" viewBox="0 0 22 22" version="1.1" xmlns="http://www.w3.org/2000/svg" xmlns:xlink="http://www.w3.org/1999/xlink">
    <path d="M10.877,0 C15.78,0 19.754,3.975 19.754,8.877 C19.754,12.488 17.759,15.634 14.597,17.016 C14.165,17.193 13.671,16.987 13.494,16.555 C13.322,16.136 13.51,15.657 13.921,15.467 C16.457,14.358 18.064,11.825 18.064,8.877 C18.064,4.908 14.846,1.691 10.877,1.691 C6.908,1.691 3.691,4.908 3.691,8.877 C3.691,11.825 5.296,14.358 7.833,15.467 C8.257,15.663 8.441,16.165 8.245,16.589 C8.055,17 7.575,17.188 7.157,17.016 C3.995,15.634 2,12.488 2,8.877 C2,3.975 5.974,0 10.877,0"></path>
    <path d="M10.3326,3.8063 L10.4546,3.8043 L10.4546,5.4953 C8.8576,5.4953 7.5506,6.7693 7.4966,8.3533 L7.4956,8.4543 C7.4976,8.9213 7.1206,9.3023 6.6536,9.3043 C6.2086,9.3063 5.8376,8.9623 5.8066,8.5183 L5.8046,8.4543 C5.8046,5.9313 7.8236,3.8713 10.3326,3.8063"></path>
</svg>