<?xml version="1.0" encoding="UTF-8"?>
<svg width="24px" height="23px" viewBox="0 0 24 23" version="1.1" xmlns="http://www.w3.org/2000/svg" xmlns:xlink="http://www.w3.org/1999/xlink">
    <title>编组</title>
    <g id="页面-1" stroke="none" stroke-width="1" fill="none" fill-rule="evenodd">
        <g id="首页标签栏图标" transform="translate(-89.000000, -6.000000)">
            <g id="广告-选中icon" transform="translate(89.499800, 6.000000)">
                <path d="M13.4911379,21.3092597 L9.26323201,21.3092597 L9.20069222,21.3114163 C8.75644401,21.3426862 8.41247513,21.7136119 8.41462159,22.1589383 C8.41678822,22.6258303 8.79634008,23.0021473 9.26323201,23 L13.4911379,23 L13.554756,22.9978342 C13.9936128,22.9633295 14.3332686,22.5977952 14.3343492,22.1567818 C14.3354252,21.6898899 13.9580298,21.310338 13.4911379,21.3092597" id="Fill-1" fill="#F55251"></path>
                <g id="编组" transform="translate(2.500200, 1.000000)" fill="#F55251">
                    <path d="M17.7548325,8.87741627 C17.7548325,3.97451189 13.7803206,0 8.87741627,0 C3.97451189,0 0,3.97451189 0,8.87741627 C0,12.2847569 1.79101038,15.2597103 4.64951038,16.7477262 L4.64951038,17.5521173 L4.65166692,17.6373008 C4.69695436,18.53658 5.43988401,19.2439266 6.34024142,19.2439266 L11.4135128,19.2439266 L11.4986964,19.2417701 C12.3979755,19.1964827 13.1042439,18.453553 13.1042439,17.5521173 L13.1042439,16.7477262 C15.9627439,15.2597103 17.7548325,12.2847569 17.7548325,8.87741627" id="Fill-3"></path>
                </g>
                <path d="M10.228,6.12689145 L10.341,6.12489145 L10.341,7.69389145 C8.86,7.69389145 7.648,8.87489145 7.598,10.3438914 L7.597,10.4378914 C7.598,10.8708914 7.249,11.2238914 6.816,11.2259008 C6.403,11.2278914 6.059,10.9088914 6.03,10.4968914 L6.028,10.4378914 C6.028,8.09689145 7.901,6.18689145 10.228,6.12689145" id="Fill-5" fill="#FEFEFE"></path>
            </g>
        </g>
    </g>
</svg>