<?xml version="1.0" encoding="UTF-8"?>
<svg width="14px" height="14px" viewBox="0 0 14 14" version="1.1" xmlns="http://www.w3.org/2000/svg" xmlns:xlink="http://www.w3.org/1999/xlink">
    <title>chahao</title>
    <g id="页面-1" stroke="none" stroke-width="1" fill="none" fill-rule="evenodd" opacity="0.5">
        <g id="首页自选区（我要买）" transform="translate(-349.000000, -247.000000)" fill="#2CBC94" fill-rule="nonzero">
            <g id="chahao" transform="translate(349.000000, 247.000000)">
                <path d="M7.06696127,13.9999736 C3.70376201,13.9898449 0.810797041,11.6350131 0.142172924,8.36326874 C-0.526451193,5.09152436 1.21339257,1.80384681 4.30677566,0.493670804 C7.88597976,-0.909668224 11.9393879,0.778340039 13.4384738,4.29649085 C14.9375596,7.81464166 13.334552,11.8773905 9.82714688,13.4492321 C8.9537773,13.8152484 8.01497813,14.0025584 7.06696127,13.9999736 L7.06696127,13.9999736 Z M7.06696127,1.03061756 C3.76583477,1.03061756 1.08887083,3.70158343 1.08887083,6.9645675 C1.08887083,10.2275516 3.76583477,12.8985174 7.06696127,12.8985174 C10.3680878,12.8985174 13.0450517,10.2413194 13.0450517,6.9645675 C13.0450517,3.68781556 10.3542175,1.03061756 7.06696127,1.03061756 Z" id="形状"></path>
                <path d="M4.41773789,10.1449765 C4.19577172,10.1418493 3.99703101,10.0077205 3.91250909,9.80396858 C3.82798718,9.60021671 3.87395651,9.36606888 4.02937007,9.20872955 L9.31394654,3.96317286 C9.53226634,3.74646509 9.88623266,3.74646509 10.1045525,3.96317288 C10.3228722,4.17988066 10.3228723,4.53123339 10.1045525,4.74794118 L4.81997599,9.97973 C4.71416998,10.0868942 4.56889311,10.1465649 4.41773789,10.1449765 Z" id="路径"></path>
                <path d="M9.70231437,10.1449444 C9.55597223,10.1428753 9.41638159,10.0834925 9.31394654,9.97973 L4.02937007,4.73417332 C3.88814192,4.59398796 3.83298605,4.38966335 3.88467914,4.19816659 C3.93637223,4.00666982 4.08706087,3.85709383 4.2799821,3.80578242 C4.47290334,3.75447102 4.67874785,3.80921964 4.81997599,3.949405 L10.0906822,9.20872955 C10.2460957,9.36606888 10.2920651,9.60021671 10.2075432,9.80396858 C10.1230212,10.0077205 9.92428054,10.1418493 9.70231437,10.1449444 L9.70231437,10.1449444 Z" id="路径"></path>
            </g>
        </g>
    </g>
</svg>