<?xml version="1.0" encoding="UTF-8"?>
<svg width="24px" height="23px" viewBox="0 0 24 23" version="1.1" xmlns="http://www.w3.org/2000/svg" xmlns:xlink="http://www.w3.org/1999/xlink">
    <title>编组</title>
    <defs>
        <polygon id="path-1" points="0 0 18.3978 0 18.3978 20.5298504 0 20.5298504"></polygon>
    </defs>
    <g id="页面-1" stroke="none" stroke-width="1" fill="none" fill-rule="evenodd">
        <g id="首页标签栏图标" transform="translate(-6.000000, -6.000000)">
            <g id="编组" transform="translate(9.000000, 7.000000)">
                <mask id="mask-2" fill="white">
                    <use xlink:href="#path-1"></use>
                </mask>
                <g id="Clip-2"></g>
                <path d="M1.5998,8.31525035 L9.2118,1.59925035 L16.7978,8.31425035 L16.7978,18.9302504 L1.5998,18.9302504 L1.5998,8.31525035 Z M8.1538,0.40025035 L0.5418,7.11525035 C0.1968,7.41925035 -0.0002,7.85625035 -0.0002,8.31525035 L-0.0002,18.9302504 C-0.0002,19.8132504 0.7158,20.5302504 1.5998,20.5302504 L16.7978,20.5302504 C17.6818,20.5302504 18.3978,19.8132504 18.3978,18.9302504 L18.3978,8.31425035 C18.3978,7.85625035 18.2018,7.42025035 17.8588,7.11625035 L10.2718,0.40225035 C9.6678,-0.13374965 8.7588,-0.13374965 8.1538,0.40025035 Z" id="Fill-1" fill="#999999" mask="url(#mask-2)"></path>
                <path d="M9.9988,12.1308504 L9.9988,17.3298504 L8.3988,17.3298504 L8.3988,12.1308504 C8.3988,11.6888504 8.7568,11.3308504 9.1988,11.3308504 C9.6408,11.3308504 9.9988,11.6888504 9.9988,12.1308504 Z" id="Fill-3" fill="#999999" mask="url(#mask-2)"></path>
            </g>
        </g>
    </g>
</svg>