<?xml version="1.0" encoding="UTF-8"?>
<svg width="19px" height="21px" viewBox="0 0 19 21" version="1.1" xmlns="http://www.w3.org/2000/svg" xmlns:xlink="http://www.w3.org/1999/xlink">
    <title>编组</title>
    <defs>
        <polygon id="path-1" points="0 0 18.3955 0 18.3955 20.5268758 0 20.5268758"></polygon>
    </defs>
    <g id="页面-1" stroke="none" stroke-width="1" fill="none" fill-rule="evenodd">
        <g id="首页快捷区（我要买）" transform="translate(-37.000000, -737.000000)">
            <g id="编组" transform="translate(37.000000, 737.000000)">
                <g>
                    <mask id="mask-2" fill="white">
                        <use xlink:href="#path-1"></use>
                    </mask>
                    <g id="Clip-2"></g>
                    <path d="M8.1525,0.399875789 L0.5415,7.11387579 C0.1975,7.41787579 -0.0005,7.85487579 -0.0005,8.31387579 L-0.0005,18.9278758 C-0.0005,19.8108758 0.7165,20.5268758 1.5995,20.5268758 L16.7965,20.5268758 C17.6795,20.5268758 18.3955,19.8108758 18.3955,18.9278758 L18.3955,8.31287579 C18.3955,7.85487579 18.1995,7.41887579 17.8565,7.11487579 L10.2705,0.401875789 C9.6665,-0.133124211 8.7575,-0.134124211 8.1525,0.399875789 Z" id="Fill-1" fill="#2CBC94" mask="url(#mask-2)"></path>
                </g>
                <path d="M9.9977,12.1290758 L9.9977,17.3280758 L8.3977,17.3280758 L8.3977,12.1290758 C8.3977,11.6870758 8.7557,11.3290758 9.1977,11.3290758 C9.6397,11.3290758 9.9977,11.6870758 9.9977,12.1290758 Z" id="Fill-3" fill="#FEFEFE"></path>
            </g>
        </g>
    </g>
</svg>