<?xml version="1.0" encoding="UTF-8"?>
<svg width="21px" height="20px" viewBox="0 0 21 20" version="1.1" xmlns="http://www.w3.org/2000/svg" xmlns:xlink="http://www.w3.org/1999/xlink">
    <title>jiajianzujianjiahao</title>
    <g id="页面-1" stroke="none" stroke-width="1" fill="none" fill-rule="evenodd">
        <g id="首页自选区（我要买）" transform="translate(-331.000000, -553.000000)" fill="#666666" fill-rule="nonzero" stroke="#FFFFFF" stroke-width="0.6">
            <g id="编组-9" transform="translate(319.000000, 541.000000)">
                <g id="jiajianzujianjiahao" transform="translate(22.500000, 22.000000) scale(1, -1) translate(-22.500000, -22.000000) translate(12.500000, 12.000000)">
                    <path d="M8.5,8.5 L2.50375001,8.5 C2.10539753,8.49940288 1.72313424,8.65712664 1.44110475,8.93845282 C1.15907525,9.219779 1.00039751,9.60164727 1,10 C1,10.834 1.67350001,11.5 2.50375001,11.5 L8.5,11.5 L8.5,17.49625 C8.5,18.32725 9.17125001,19 10,19 C10.834,19 11.5,18.3265 11.5,17.49625 L11.5,11.5 L17.49625,11.5 C17.8946025,11.5005971 18.2768658,11.3428734 18.5588953,11.0615472 C18.8409247,10.780221 18.9996025,10.3983527 19,10 C19,9.16600001 18.3265,8.5 17.49625,8.5 L11.5,8.5 L11.5,2.50375001 C11.5005971,2.10539753 11.3428734,1.72313424 11.0615472,1.44110475 C10.780221,1.15907525 10.3983527,1.00039751 10,1 C9.16600001,1 8.5,1.67350001 8.5,2.50375001 L8.5,8.5 Z" id="路径"></path>
                </g>
            </g>
        </g>
    </g>
</svg>