<svg width="8px" height="7px" viewBox="0 0 8 7" version="1.1" xmlns="http://www.w3.org/2000/svg" xmlns:xlink="http://www.w3.org/1999/xlink">
    <path d="M5.88919668,2.11320755 C5.80609418,2.02830189 5.69529086,2 5.58448753,2 L1.42936288,2.02830189 C1.31855956,2.02830189 1.20775623,2.05660377 1.12465374,2.14150943 C0.958448753,2.31132075 0.958448753,2.56603774 1.12465374,2.73584906 L3.20221607,4.85849057 C3.20221607,4.85849057 3.20221607,4.85849057 3.20221607,4.85849057 C3.20221607,4.85849057 3.20221607,4.85849057 3.20221607,4.85849057 C3.2299169,4.88679245 3.28531856,4.91509434 3.31301939,4.94339623 C3.31301939,4.94339623 3.34072022,4.97169811 3.34072022,4.97169811 C3.47922438,5.02830189 3.67313019,5 3.78393352,4.88679245 L5.86149584,2.73584906 C6.05540166,2.53773585 6.02770083,2.28301887 5.88919668,2.11320755 Z"></path>
</svg>