<?xml version="1.0" encoding="UTF-8"?>
<svg width="25px" height="25px" viewBox="0 0 25 25" version="1.1" xmlns="http://www.w3.org/2000/svg" xmlns:xlink="http://www.w3.org/1999/xlink">
    <title>编组 10</title>
    <g id="页面-1" stroke="none" stroke-width="1" fill="none" fill-rule="evenodd">
        <g id="首页快捷区（我要买）" transform="translate(-285.000000, -614.000000)" stroke="#333333" stroke-width="2.2">
            <g id="编组-3备份-2" transform="translate(67.000000, 413.000000)">
                <g id="编组-10" transform="translate(218.000000, 201.000000)">
                    <path d="M22,6.1 C22.2485281,6.1 22.4735281,6.20073593 22.6363961,6.3636039 C22.7992641,6.52647186 22.9,6.75147186 22.9,7 L22.9,7 L22.9,19 C22.9,19.2485281 22.7992641,19.4735281 22.6363961,19.6363961 C22.4735281,19.7992641 22.2485281,19.9 22,19.9 L22,19.9 L7.82417414,19.9 C7.56260791,19.9 7.31398168,19.7862064 7.14302099,19.5882435 L7.14302099,19.5882435 L1.96142437,13.5882435 C1.81552647,13.4193018 1.74257752,13.2096509 1.74257752,13 C1.74257752,12.7903491 1.81552647,12.5806982 1.96142437,12.4117565 L1.96142437,12.4117565 L7.14302099,6.41175652 C7.31398168,6.21379357 7.56260791,6.1 7.82417414,6.1 L7.82417414,6.1 Z" id="矩形"></path>
                    <line x1="12" y1="11" x2="16" y2="15" id="路径-3" stroke-linecap="round"></line>
                    <line x1="12" y1="11" x2="16" y2="15" id="路径-3" stroke-linecap="round" transform="translate(14.000000, 13.000000) scale(-1, 1) translate(-14.000000, -13.000000) "></line>
                </g>
            </g>
        </g>
    </g>
</svg>