<?xml version="1.0" encoding="UTF-8"?>
<svg width="22px" height="22px" viewBox="0 0 22 22" version="1.1" xmlns="http://www.w3.org/2000/svg" xmlns:xlink="http://www.w3.org/1999/xlink">
    <title>编组 9</title>
    <g id="页面-1" stroke="none" stroke-width="1" fill="none" fill-rule="evenodd" opacity="0.5">
        <g id="首页-自选区页面（认证页面）" transform="translate(-176.000000, -679.000000)" fill-rule="nonzero">
            <g id="编组-9" transform="translate(176.500000, 679.250000)">
                <path d="M21.6810942,8.56367925 C21.5356648,8.42216981 21.341759,8.375 21.1478532,8.375 L13.876385,8.42216981 C13.6824792,8.42216981 13.4885734,8.46933962 13.343144,8.61084906 C13.0522853,8.89386792 13.0522853,9.31839623 13.343144,9.60141509 L16.9788781,13.1391509 C16.9788781,13.1391509 16.9788781,13.1391509 16.9788781,13.1391509 C16.9788781,13.1391509 16.9788781,13.1391509 16.9788781,13.1391509 C17.0273546,13.1863208 17.1243075,13.2334906 17.1727839,13.2806604 C17.1727839,13.2806604 17.2212604,13.3278302 17.2212604,13.3278302 C17.4636427,13.4221698 17.8029778,13.375 17.9968837,13.1863208 L21.6326177,9.60141509 C21.9719529,9.27122642 21.9234765,8.84669811 21.6810942,8.56367925 Z" id="路径备份" fill="#000000" transform="translate(17.500000, 10.875000) rotate(-90.000000) translate(-17.500000, -10.875000) "></path>
                <path d="M8.68109418,8.56367925 C8.53566482,8.42216981 8.341759,8.375 8.14785319,8.375 L0.876385042,8.42216981 C0.682479224,8.42216981 0.488573407,8.46933962 0.343144044,8.61084906 C0.0522853186,8.89386792 0.0522853186,9.31839623 0.343144044,9.60141509 L3.97887812,13.1391509 C3.97887812,13.1391509 3.97887812,13.1391509 3.97887812,13.1391509 C3.97887812,13.1391509 3.97887812,13.1391509 3.97887812,13.1391509 C4.02735457,13.1863208 4.12430748,13.2334906 4.17278393,13.2806604 C4.17278393,13.2806604 4.22126039,13.3278302 4.22126039,13.3278302 C4.46364266,13.4221698 4.80297784,13.375 4.99688366,13.1863208 L8.63261773,9.60141509 C8.97195291,9.27122642 8.92347645,8.84669811 8.68109418,8.56367925 Z" id="路径备份-2" fill="#999999" transform="translate(4.500000, 10.875000) rotate(-90.000000) translate(-4.500000, -10.875000) "></path>
            </g>
        </g>
    </g>
</svg>