<?xml version="1.0" encoding="UTF-8"?>
<svg width="45px" height="45px" viewBox="0 0 45 45" version="1.1" xmlns="http://www.w3.org/2000/svg" xmlns:xlink="http://www.w3.org/1999/xlink">
    <title>编组 13</title>
    <defs>
        <filter x="-9.6%" y="-9.3%" width="119.2%" height="118.6%" filterUnits="objectBoundingBox" id="filter-1">
            <feOffset dx="0" dy="0" in="SourceAlpha" result="shadowOffsetOuter1"></feOffset>
            <feGaussianBlur stdDeviation="0.5" in="shadowOffsetOuter1" result="shadowBlurOuter1"></feGaussianBlur>
            <feColorMatrix values="0 0 0 0 0.391501524   0 0 0 0 0.498186322   0 0 0 0 1  0 0 0 0.562773164 0" type="matrix" in="shadowBlurOuter1" result="shadowMatrixOuter1"></feColorMatrix>
            <feMerge>
                <feMergeNode in="shadowMatrixOuter1"></feMergeNode>
                <feMergeNode in="SourceGraphic"></feMergeNode>
            </feMerge>
        </filter>
    </defs>
    <g id="页面-1" stroke="none" stroke-width="1" fill="none" fill-rule="evenodd">
        <g id="首页-自选区页面（等待对方放行）联系电话icon" transform="translate(-165.000000, -654.000000)">
            <g id="编组-13" transform="translate(165.000000, 654.000000)">
                <circle id="椭圆形" fill="#F3F5FF" cx="22.5" cy="22.5" r="22.5"></circle>
                <g id="dianhua-3" filter="url(#filter-1)" transform="translate(10.000000, 9.000000)" fill="#5170FF" fill-rule="nonzero">
                    <path d="M20.0049605,12.5805786 L19.8389065,12.5805786 C19.3479319,12.5757039 18.9338938,12.2354851 18.8633391,11.7788954 C18.5595675,10.1697214 17.3846591,8.82591878 15.7636641,8.23363926 C15.3002944,8.07959439 15.0246367,7.63208488 15.1132859,7.17779918 L15.1409616,7.02761503 C15.2024039,6.75811778 15.3869334,6.5276781 15.6454948,6.39755588 C15.9040562,6.26743365 16.2104525,6.25081267 16.4832316,6.35211144 C18.867027,7.19856298 20.584007,9.18203921 20.9805279,11.5474428 C21.0170131,11.8101428 20.9305027,12.0748037 20.7433747,12.2729644 C20.5562467,12.4711251 20.2868827,12.5833203 20.0049605,12.5805786 L20.0049605,12.5805786 Z M16.0957722,2.57215192 L16.1234478,2.42326804 C16.1788988,2.16874929 16.3447787,1.94748363 16.5811589,1.81273167 C16.817539,1.67797971 17.1030087,1.64194688 17.368853,1.71330661 C22.1270287,3.02291346 25.548933,6.93354084 25.9967431,11.5734487 C26.0191752,11.832987 25.9249939,12.0895028 25.7370235,12.2808309 C25.5490532,12.472159 25.2844495,12.5808371 25.0073379,12.5805871 L24.8482028,12.5805871 C24.3433451,12.5859008 23.9187644,12.2259839 23.8726354,11.7535397 C23.50685,7.93068376 20.6875799,4.70807969 16.7669072,3.63124274 C16.2841365,3.49592597 15.9923465,3.03546406 16.0957722,2.57215192 Z" id="形状"></path>
                    <path d="M22.1552834,20.0781938 C21.8828622,19.5577486 21.5443653,19.0751277 21.1482969,18.6424557 C18.9942794,16.1809028 17.0870069,15.5026172 14.9663334,16.442556 C14.7329259,16.54923 14.5461999,16.6438277 14.3728115,16.7384254 L13.799296,17.0738782 C13.6233307,16.9400911 13.4562543,16.7948653 13.2991371,16.6391314 C12.3960646,15.719365 11.5790288,14.7179543 10.8583619,13.647563 C10.1903373,12.7183281 9.59502688,11.7383215 9.07779634,10.7163762 L8.91107672,10.3634798 L8.7910386,10.091763 L8.75102589,9.98643082 L8.71768195,9.91196029 L8.97776456,9.75429747 C10.3048527,8.94048891 11.011744,8.03409534 11.1984699,6.90160657 C11.3851959,5.80065037 11.0584254,4.56282943 10.1448019,2.8869071 C9.23117837,1.21098477 8.11082251,0.292514899 6.70370892,0.0563560841 C6.4766488,0.01883322 6.24692713,0 6.01682409,0 C4.98983123,0 4.10955163,0.326060161 2.65575652,1.24453004 L2.26896701,1.48941058 L1.92219017,1.7041004 C0.967931453,2.32409121 0.320592929,3.32291494 0.141624618,4.4514591 C-0.173835601,6.49645149 0.0397624015,8.58872012 0.761821609,10.5265099 C1.6179544,13.0922046 2.84724497,15.516119 4.40964695,17.7192895 C5.47903601,19.2574862 6.68913695,20.6916474 8.02412832,22.0030221 C9.19118537,23.1628235 10.4790194,24.1927893 11.8653484,25.0750992 C13.3311481,26.1065905 15.0489108,26.7161933 16.8335931,26.8382393 C17.485155,26.8481237 18.1297258,26.7021045 18.7141905,26.4122142 L19.8012024,25.7922973 C21.2616663,24.9395762 21.9552199,24.2619615 22.3753533,23.2918319 C22.800965,22.2441886 22.7196814,21.0572201 22.1552834,20.0781938 Z M2.9225079,3.56586362 L3.08255874,3.4578478 L4.06953892,2.83658917 L4.52301627,2.57292325 C4.97078886,2.28292338 5.48523819,2.11379347 6.01682409,2.0818039 C6.12630929,2.08136611 6.23563209,2.09034431 6.34359453,2.10865652 C7.05715452,2.22740682 7.68402029,2.80103116 8.26420457,3.86374573 C8.92441427,5.07741408 9.19116566,5.96300956 9.09113392,6.57085009 C8.94705297,7.14273771 8.55886654,7.62119913 8.03079712,7.87777431 L7.64400758,8.11795856 L7.12384236,8.43060059 C6.83197826,8.61189896 6.62701556,8.90591653 6.55699566,9.24373825 L6.5369893,9.38731205 L6.52365172,9.56107664 C6.57761721,10.2810877 6.78942133,10.980138 7.14384872,11.6080098 C7.71337219,12.7258026 8.36424031,13.7997171 9.09113392,14.820977 C9.89115623,16.0022271 10.797483,17.1069423 11.7986606,18.121162 C12.1398559,18.4642637 12.5230529,18.7623021 12.9390228,19.0080993 C13.3633726,19.2839399 13.8919202,19.3430773 14.3661427,19.1677748 L14.5061872,19.1006842 L15.226416,18.6619119 L15.5331801,18.4901601 L15.846613,18.33451 L16.0266701,18.2586977 L16.2200649,18.1916071 C16.866937,18.0010699 17.7405479,18.0372988 19.3143811,19.7534755 L19.5878013,20.0654466 L19.7611897,20.2714146 L19.9545844,20.531726 C20.4414078,21.0574409 20.6118105,21.8048322 20.401393,22.4914415 C20.0777524,23.0874219 19.5729652,23.5635177 18.9609355,23.8500254 L17.8139045,24.5162348 C16.9069498,25.0650356 15.0663652,24.6074779 13.0123794,23.3226936 C11.7592665,22.5210748 10.5945558,21.5875027 9.53794249,20.5377642 C8.29644885,19.3144523 7.16914457,17.9791197 6.17020615,16.5485591 C4.72670499,14.5136536 3.58965075,12.2755478 2.795801,9.90659304 C2.19595956,8.30423258 1.99894959,6.57759069 2.22228549,4.88016781 C2.30194499,4.37524739 2.54866726,3.91215437 2.9225079,3.56586362 L2.9225079,3.56586362 Z" id="形状"></path>
                </g>
            </g>
        </g>
    </g>
</svg>