<?xml version="1.0" encoding="UTF-8"?>
<svg width="30px" height="30px" viewBox="0 0 30 30" version="1.1" xmlns="http://www.w3.org/2000/svg" xmlns:xlink="http://www.w3.org/1999/xlink">
    <title>mima-3</title>
    <g id="页面-1" stroke="none" stroke-width="1" fill="none" fill-rule="evenodd">
        <g id="首页-自选区页面（认证页面）" transform="translate(-266.000000, -667.000000)" fill="#333333" fill-rule="nonzero">
            <g id="mima-3" transform="translate(266.000000, 667.000000)">
                <path d="M14.468144,29 C8.16066482,29 3,23.956044 3,17.7912088 L3,16.7948718 C3,14.1794872 5.16620498,12 7.90581719,12 L21.7313019,12 C24.0886427,12 26,13.8681319 26,16.1721612 L26,17.7912088 C25.9362881,23.956044 20.7756233,29 14.468144,29 Z M7.84210526,13.8681319 C6.18559555,13.8681319 4.84764544,15.1758242 4.84764544,16.7948718 L4.84764544,17.7912088 C4.84764544,22.959707 9.11634349,27.1318681 14.4044321,27.1318681 C19.6925208,27.1318681 23.9612189,22.959707 23.9612189,17.7912088 L23.9612189,16.2344322 C23.9612189,14.9267399 22.8781164,13.9304029 21.6038781,13.9304029 L7.84210526,13.9304029 L7.84210526,13.8681319 Z" id="形状"></path>
                <path d="M20.0441176,12 C19.5343137,12 19.0882353,11.5674157 19.0882353,11.0730337 L19.0882353,7.30337079 C19.0882353,4.83146066 17.0490196,2.85393259 14.5,2.85393259 C11.9509804,2.85393259 9.91176471,4.83146069 9.91176471,7.30337079 L9.91176471,11.0730337 C9.91176471,11.5674157 9.46568628,12 8.95588235,12 C8.44607842,12 8,11.5674157 8,11.0730337 L8,7.30337079 C8,3.84269662 10.9313725,1 14.5,1 C18.0686275,1 21,3.84269662 21,7.30337079 L21,11.0730337 C21,11.5674157 20.5539216,12 20.0441176,12 Z" id="路径"></path>
                <path d="M15,22 C14.4666667,22 14,21.5578947 14,21.0526316 L14,16.9473684 C14,16.4421053 14.4666667,16 15,16 C15.5333333,16 16,16.4421053 16,16.9473684 L16,21.0526316 C16,21.5578947 15.5333333,22 15,22 Z" id="路径"></path>
            </g>
        </g>
    </g>
</svg>