<?xml version="1.0" encoding="UTF-8"?>
<svg width="15px" height="15px" viewBox="0 0 15 15" version="1.1" xmlns="http://www.w3.org/2000/svg" xmlns:xlink="http://www.w3.org/1999/xlink">
    <title>编组 3备份</title>
    <g id="页面-1" stroke="none" stroke-width="1" fill="none" fill-rule="evenodd">
        <g id="首页自选区（我要买）" transform="translate(-12.000000, -389.000000)">
            <g id="编组-6" transform="translate(12.000000, 294.000000)">
                <g id="银行卡icon" transform="translate(0.000000, 95.000000)">
                    <rect id="矩形" fill="#FEBD60" x="0" y="0" width="15" height="15" rx="3"></rect>
                    <g id="dkw_yinhangqia" transform="translate(3.000000, 4.000000)" fill="#FFFFFF" fill-rule="nonzero">
                        <path d="M0.900000006,7 C0.661305165,7 0.432386642,6.89523612 0.263603899,6.70875521 C0.0948211573,6.5222743 0,6.26935191 0,6.00562808 L0,1.98874384 L9,1.98874384 L9,6.00562808 C9,6.26935191 8.90517884,6.5222743 8.7363961,6.70875521 C8.56761336,6.89523612 8.33869484,7 8.09999999,7 L0.900000006,7 Z M4.08425421,5.3181773 C4.01460276,5.50396296 4.05310285,5.71781151 4.18180195,5.8600057 C4.31050105,6.00219989 4.50405408,6.04473701 4.67220755,5.96778206 C4.84036103,5.89082712 4.95,5.70953507 4.95,5.50844211 C4.95,5.23385389 4.74852814,5.01125616 4.5,5.01125616 C4.31799199,5.01125616 4.15390566,5.13239163 4.08425421,5.3181773 Z M6.075,5.01125616 C5.89299198,5.01125616 5.72890565,5.13239163 5.6592542,5.3181773 C5.58960275,5.50396296 5.62810284,5.71781151 5.75680195,5.8600057 C5.88550105,6.00219989 6.07905407,6.04473701 6.24720755,5.96778206 C6.41536102,5.89082712 6.525,5.70953507 6.525,5.50844211 C6.525,5.23385389 6.32352813,5.01125616 6.075,5.01125616 Z M7.2342542,5.31817729 C7.16460275,5.50396295 7.20310284,5.7178115 7.33180194,5.86000569 C7.46050104,6.00219989 7.65405406,6.04473701 7.82220754,5.96778206 C7.99036102,5.89082712 8.09999999,5.70953507 8.09999999,5.50844211 C8.09999999,5.2338539 7.89852813,5.01125616 7.65,5.01125616 C7.46799199,5.01125616 7.30390565,5.13239163 7.2342542,5.31817729 Z M0.263603899,0.291244788 C0.432386642,0.104763879 0.661305165,0 0.900000006,0 L8.09999999,0 C8.33869484,0 8.56761336,0.104763879 8.7363961,0.291244788 C8.90517884,0.477725697 9,0.730648087 9,0.994371919 L9,1.49155789 L0,1.49155789 L0,0.994371919 C0,0.730648087 0.0948211573,0.477725697 0.263603899,0.291244788 Z" id="形状"></path>
                    </g>
                </g>
            </g>
        </g>
    </g>
</svg>