<?xml version="1.0" encoding="UTF-8"?>
<svg width="16px" height="16px" viewBox="0 0 16 16" version="1.1" xmlns="http://www.w3.org/2000/svg" xmlns:xlink="http://www.w3.org/1999/xlink">
    <title>renlianshibie</title>
    <g id="页面-1" stroke="none" stroke-width="1" fill="none" fill-rule="evenodd">
        <g id="订单页面--请付款（交易安全保障弹窗）" transform="translate(-297.000000, -488.000000)" fill="#000000" fill-rule="nonzero">
            <g id="编组-13" transform="translate(250.000000, 479.000000)">
                <g id="renlianshibie" transform="translate(47.000000, 9.000000)">
                    <path d="M0.8,10.4 C1.2374,10.4 1.59282,10.75104 1.5999,11.18678 L1.6,11.2 L1.6,14.4 L4.8,14.4 C5.2374,14.4 5.59282,14.75104 5.5999,15.18678 L5.6,15.2 C5.6,15.6374 5.24896,15.99282 4.81322,15.9999 L4.8,16 L0.8,16 C0.3626,16 0.00718,15.64896 0.0001,15.21322 L0,15.2 L0,11.2 C0,10.75818 0.35818,10.4 0.8,10.4 Z M0.8,5.6 C1.2374,5.6 1.59282,5.24896 1.5999,4.81322 L1.6,4.8 L1.6,1.6 L4.8,1.6 C5.2374,1.6 5.59282,1.24896 5.5999,0.81322 L5.6,0.8 C5.6,0.3626 5.24896,0.00718 4.81322,0.0001 L4.8,0 L0.8,0 C0.3626,0 0.00718,0.35104 0.0001,0.78678 L0,0.8 L0,4.8 C0,5.24182 0.35818,5.6 0.8,5.6 Z M15.2,10.4 C14.7626,10.4 14.40718,10.75104 14.4001,11.18678 L14.4,11.2 L14.4,14.4 L11.2,14.4 C10.7626,14.4 10.40718,14.75104 10.4001,15.18678 L10.4,15.2 C10.4,15.6374 10.75104,15.99282 11.18678,15.9999 L11.2,16 L15.2,16 C15.6374,16 15.99282,15.64896 15.9999,15.21322 L16,15.2 L16,11.2 C16,10.75818 15.64182,10.4 15.2,10.4 Z M15.2,5.6 C14.7626,5.6 14.40718,5.24896 14.4001,4.81322 L14.4,4.8 L14.4,1.6 L11.2,1.6 C10.7626,1.6 10.40718,1.24896 10.4001,0.81322 L10.4,0.8 C10.4,0.3626 10.75104,0.00718 11.18678,0.0001 L11.2,0 L15.2,0 C15.6374,0 15.99282,0.35104 15.9999,0.78678 L16,0.8 L16,4.8 C16,5.24182 15.64182,5.6 15.2,5.6 Z M8.02,2.46 C6.4736,2.46 5.22,3.7136 5.22,5.26 C5.22,6.8064 6.4736,8.06 8.02,8.06 C9.5664,8.06 10.82,6.8064 10.82,5.26 C10.82,3.7136 9.5664,2.46 8.02,2.46 Z M8.02,4.06 C8.68274,4.06 9.22,4.59726 9.22,5.26 C9.22,5.92274 8.68274,6.46 8.02,6.46 C7.35726,6.46 6.82,5.92274 6.82,5.26 C6.82,4.59726 7.35726,4.06 8.02,4.06 Z" id="形状"></path>
                    <path d="M8.02868025,7 C11.0110267,7 13.4286802,9.26157312 13.4286802,12.0513834 C13.4286802,12.5752806 12.9746493,13 12.4145957,13 C11.860145,13 11.4096126,12.583747 11.400638,12.0670593 L11.4005112,12.0513834 C11.4005112,10.3093913 9.89089433,8.8972332 8.02868025,8.8972332 C6.18507462,8.8972332 4.68706898,10.2812885 4.6573056,11.9992095 L4.65684926,12.0513834 C4.65684926,12.5752806 4.20281828,13 3.64276476,13 C3.08271124,13 2.62868025,12.5752806 2.62868025,12.0513834 C2.62868025,9.26157312 5.04633377,7 8.02868025,7 Z" id="路径"></path>
                </g>
            </g>
        </g>
    </g>
</svg>