<?xml version="1.0" encoding="UTF-8"?>
<svg width="12px" height="13px" viewBox="0 0 12 13" version="1.1" xmlns="http://www.w3.org/2000/svg" xmlns:xlink="http://www.w3.org/1999/xlink">
    <title>renzhengxinxi</title>
    <defs>
        <linearGradient x1="20.4842507%" y1="14.7547551%" x2="69.1304932%" y2="100%" id="linearGradient-1">
            <stop stop-color="#09BB07" offset="0%"></stop>
            <stop stop-color="#09BB07" offset="100%"></stop>
        </linearGradient>
    </defs>
    <g id="页面-1" stroke="none" stroke-width="1" fill="none" fill-rule="evenodd">
        <g id="首页自选区（我要买）" transform="translate(-102.000000, -298.000000)" fill-rule="nonzero">
            <g id="编组-6" transform="translate(12.000000, 294.000000)">
                <g id="认证icon" transform="translate(90.000000, 4.000000)">
                    <path d="M6,0 L11.6012306,1.52626892 C11.8373349,1.59083403 12.0002137,1.79887991 12,2.03561888 L12,6.73820125 C11.9713844,8.2760463 11.4203075,9.61887801 10.3559998,10.745325 C9.28984599,11.8726625 7.86830755,12.6170971 6.10707682,12.9759573 L5.98892297,13 L5.87076913,12.9715049 C4.03015378,12.5146928 2.61784611,11.7756011 1.64399997,10.745325 C0.661846142,9.70614426 0.115384613,8.35796972 0.000923076907,6.72039181 L0,6.70258237 L0,2.03650935 C0,1.79964381 0.163384613,1.59127337 0.398769224,1.52715939 L6,0 Z" id="路径" fill="url(#linearGradient-1)"></path>
                    <path d="M9.21046138,4.23953695 C9.38878303,4.41106693 9.39165822,4.68882682 9.21692292,4.86375779 L9.21138445,4.86910062 L5.68061529,8.2920748 C5.50233615,8.46501547 5.21300529,8.46739764 5.03169222,8.29741763 L5.02615376,8.2920748 L2.78861534,6.12199466 C2.61239397,5.94829439 2.61313112,5.67036065 2.79027156,5.49753255 C2.96741201,5.32470445 3.25549561,5.32084854 3.4375384,5.4888691 L5.35384606,7.34639359 L8.55692293,4.2413179 C8.64326601,4.15734 8.76069919,4.10995602 8.88330912,4.10962011 C9.00591904,4.10928777 9.12362785,4.15603098 9.21046138,4.23953695 Z" id="路径" fill="#FFFFFF"></path>
                </g>
            </g>
        </g>
    </g>
</svg>