<?xml version="1.0" encoding="UTF-8"?>
<svg width="19px" height="19px" viewBox="0 0 19 19" version="1.1" xmlns="http://www.w3.org/2000/svg" xmlns:xlink="http://www.w3.org/1999/xlink">
    <title>jiekuanrenshenfenzhengxinxixiugai</title>
    <g id="页面-1" stroke="none" stroke-width="1" fill="none" fill-rule="evenodd">
        <g id="订单页面--请付款（交易安全保障弹窗）" transform="translate(-10.000000, -562.000000)" fill="#040000" fill-rule="nonzero">
            <g id="shenfenrenzheng" transform="translate(10.000000, 562.000000)">
                <path d="M9.5,18 C9.0863472,18 8.67269439,17.906675 8.29294756,17.720025 C5.94213382,16.5577043 2,14.1609482 2,11.1618216 L2,4.69058016 C2,4.27273862 2.35262206,3.9312539 2.79566004,3.91852776 C4.48417722,3.86550218 6.06871609,3.12950717 7.13788427,1.89507174 C7.63291139,1.32663755 8.38336347,1 9.19936709,1 L9.42992767,1 C10.1939421,1 10.9240506,1.33300062 11.4303797,1.91203993 C12.5537975,3.19737991 14.2197107,3.92064878 15.9963834,3.92064878 C16.0393309,3.92064878 16.0822785,3.92064878 16.125226,3.91852776 C16.3535262,3.9036806 16.5750452,3.98003743 16.7400542,4.12638802 C16.9050633,4.27273862 17,4.47635683 17,4.68845914 L17,11.1618216 C17,14.1609482 13.0578662,16.5577043 10.7070524,17.720025 C10.329566,17.906675 9.9136528,18 9.5,18 L9.5,18 Z M3.64783002,5.39900187 L3.64783002,11.1618216 C3.64783002,13.494947 7.79113924,15.7241422 9.06148282,16.3519651 C9.33499096,16.4877105 9.66500904,16.4877105 9.94077758,16.3519651 C11.2088608,15.7241422 15.35217,13.494947 15.35217,11.1618216 L15.35217,5.44566438 C13.3245931,5.29507174 11.4575045,4.38303182 10.1555154,2.89407361 C9.96338156,2.67348721 9.69891501,2.54834685 9.42992767,2.54834685 L9.19936709,2.54834685 C8.88517179,2.54834685 8.59132007,2.66924517 8.41500904,2.87286338 C7.21473779,4.25577043 5.50813743,5.15296319 3.64783002,5.39900187 Z" id="形状"></path>
                <path d="M8.72239725,12 C8.49332959,12 8.26426193,11.9153774 8.08748145,11.74855 L6.27236921,10.0222488 C5.91382853,9.68134054 5.90884879,9.12283133 6.25991988,8.77708754 C6.61099097,8.42892595 7.18366013,8.42409037 7.54220082,8.76499859 L8.71741752,9.8844348 L11.45627,7.25388059 C11.8123208,6.91297237 12.3874798,6.91539016 12.7385509,7.26113396 C13.089622,7.60687776 13.0871322,8.16538697 12.7310813,8.50629519 L9.35980292,11.7461322 C9.18302244,11.9153774 8.95395478,12 8.72239725,12 Z" id="路径"></path>
            </g>
        </g>
    </g>
</svg>