<svg width="20px" height="20px" viewBox="0 0 20 20" version="1.1" xmlns="http://www.w3.org/2000/svg" xmlns:xlink="http://www.w3.org/1999/xlink">
    <path d="M2,9.5 C2,10.3284271 2.67157288,11 3.5,11 C4.32842712,11 5,10.3284271 5,9.5 C5,8.67157288 4.32842712,8 3.5,8 C2.67157288,8 2,8.67157288 2,9.5 Z"></path>
    <path d="M8,9.5 C8,10.3284271 8.67157288,11 9.5,11 C10.3284271,11 11,10.3284271 11,9.5 C11,8.67157288 10.3284271,8 9.5,8 C8.67157288,8 8,8.67157288 8,9.5 Z"></path>
    <path d="M14,9.5 C14,10.3284271 14.6715729,11 15.5,11 C16.3284271,11 17,10.3284271 17,9.5 C17,8.67157288 16.3284271,8 15.5,8 C14.6715729,8 14,8.67157288 14,9.5 Z"></path>
</svg>