<?xml version="1.0" encoding="UTF-8"?>
<svg width="19px" height="19px" viewBox="0 0 19 19" version="1.1" xmlns="http://www.w3.org/2000/svg" xmlns:xlink="http://www.w3.org/1999/xlink">
    <title>shaixuan-4</title>
    <g id="页面-1" stroke="none" stroke-width="1" fill="none" fill-rule="evenodd">
        <g id="首页-自选区页面（我的广告）" transform="translate(-344.000000, -57.000000)" fill="#666666" fill-rule="nonzero">
            <g id="shaixuan-4" transform="translate(344.000000, 57.000000)">
                <path d="M15.7776096,5.78034262 C15.869878,5.68428079 15.9735702,5.57589535 16.0409377,5.45214662 C16.5456587,4.7982999 16.6059543,3.80860299 16.1824463,3.09033661 C15.7558148,2.36685146 15.1234131,2 14.3029826,2 L4.14882838,2 C3.95206054,2 3.74872968,2 3.57166845,2.05826701 C3.13812289,2.1676962 2.74148118,2.4350799 2.45402429,2.81189279 C2.16121521,3.19553585 2,3.66980224 2,4.14725483 C2,4.76682252 2.2262488,5.31590948 2.63729758,5.69411403 C3.94297058,7.00982789 5.2465378,8.36956245 6.50790162,9.68588059 L6.50790162,14.0303439 L6.5100776,14.0669118 C6.57863837,14.6389247 6.99507444,14.9513912 7.49912862,14.7255012 L7.50790272,14.721198 C7.78061912,14.578973 7.93695594,14.2925454 7.93695594,13.9353258 L7.93695594,9.46894491 C7.93695594,9.1674653 7.84791643,8.92161586 7.67222396,8.73828168 C7.04217378,8.08073605 6.42138905,7.39744453 5.82115325,6.7365479 C5.20229881,6.05517908 4.56231636,5.35062797 3.89343204,4.65265067 L3.86066957,4.61811529 L3.82118615,4.59778959 C3.81188561,4.59112422 3.79135423,4.56318096 3.77577143,4.54182981 C3.75866195,4.51870246 3.74199117,4.49682029 3.72447808,4.47686081 C3.6089759,4.32244041 3.58461901,4.19120229 3.6385446,4.01411232 C3.73230457,3.79269034 3.92031587,3.53858244 4.14874064,3.53858244 L14.39397,3.53858244 C14.5187201,3.53858244 14.6389954,3.60889838 14.7325623,3.73669395 C14.8539431,3.902559 14.8990946,4.12185685 14.8491525,4.313303 C14.8237076,4.41921639 14.7813463,4.46719237 14.6533849,4.60097578 C13.2426158,6.02549623 11.8950728,7.43154044 10.4684577,8.92013263 L10.4608769,8.92813473 C10.3163324,9.07878298 10.1504845,9.29808083 10.1504845,9.65888952 L10.1504845,17.166435 C10.1504845,17.2587246 10.1504845,17.5188021 10.3326698,17.7269482 C10.3326698,17.7269482 10.3879992,17.8572891 10.6265493,17.951941 C10.9213589,18.0688595 11.2093422,17.9356804 11.2093422,17.9356804 L11.2845538,17.8769739 C11.5795388,17.6459934 11.5795388,17.2862467 11.5795388,17.0712521 L11.5795388,9.97098976 C12.284976,9.23664594 13.0159458,8.52231652 13.7233133,7.83111445 C14.4436665,7.12744229 15.1239045,6.46259039 15.7776272,5.78034262 L15.7776096,5.78034262 Z M17.3537879,15.399051 L13.4832541,15.399051 C13.0788912,15.399051 12.8372175,15.7419145 12.8372175,16.0734615 L12.8372175,16.2636808 C12.8372175,16.6857596 13.1656319,16.9379081 13.4832541,16.9379081 L17.3537879,16.9379081 C17.7583439,16.9379081 18,16.5951179 18,16.2636625 L18,16.0734249 C18,15.670097 17.7403219,15.3990144 17.3537879,15.3990144 L17.3537879,15.399051 Z M17.3537879,12.9759526 L13.4832541,12.9759526 C13.0788912,12.9759526 12.8372175,13.3188344 12.8372175,13.6503631 L12.8372175,13.7926796 C12.8372175,14.2149232 13.1656319,14.4671633 13.4832541,14.4671633 L17.3537879,14.4671633 C17.7583439,14.4671633 18,14.1242999 18,13.7926796 L18,13.6503631 C18,13.3188344 17.7583614,12.9759526 17.3537879,12.9759526 Z M17.3537879,10.6477075 L13.4832541,10.6477075 C13.0788912,10.6477075 12.8372175,10.990571 12.8372175,11.322118 L12.8372175,11.4171543 C12.8372175,11.8391049 13.1656319,12.0913817 13.4832541,12.0913817 L17.3537879,12.0913817 C17.7583439,12.0913817 18,11.7485915 18,11.4171543 L18,11.322118 C18,10.9187168 17.7403219,10.6477075 17.3537879,10.6477075 Z" id="形状"></path>
            </g>
        </g>
    </g>
</svg>