<?xml version="1.0" encoding="UTF-8"?>
<svg width="19px" height="19px" viewBox="0 0 19 19" version="1.1" xmlns="http://www.w3.org/2000/svg" xmlns:xlink="http://www.w3.org/1999/xlink">
    <title>jiekuanrenshenfenzhengxinxixiugai</title>
    <g id="页面-1" stroke="none" stroke-width="1" fill="none" fill-rule="evenodd">
        <g id="订单页面--请付款（交易安全保障弹窗）" transform="translate(-11.000000, -451.000000)" fill-rule="nonzero">
            <g id="编组-10" transform="translate(11.000000, 450.000000)">
                <g id="jiekuanrenshenfenzhengxinxixiugai" transform="translate(0.000000, 1.000000)">
                    <path d="M15.9647754,16 L3.03522461,16 C1.91338758,16 1,15.0642174 1,13.9148746 L1,5.08512545 C1,3.93578256 1.91338758,3 3.03522461,3 L15.9647754,3 C17.0866124,3 18,3.93578256 18,5.08512545 L18,13.9148746 C18,15.0642174 17.0866124,16 15.9647754,16 Z M3.03522461,4.22700119 C2.57284584,4.22700119 2.19763683,4.6114098 2.19763683,5.08512545 L2.19763683,13.9148746 C2.19763683,14.3885902 2.57284584,14.7729988 3.03522461,14.7729988 L15.9647754,14.7729988 C16.4271542,14.7729988 16.8023632,14.3885902 16.8023632,13.9148746 L16.8023632,5.08512545 C16.8023632,4.6114098 16.4271542,4.22700119 15.9647754,4.22700119 L3.03522461,4.22700119 Z" id="形状" fill="#040000"></path>
                    <path d="M14.3747527,9.14337404 L10.6252473,9.14337404 C10.2809656,9.14337404 10,8.88828584 10,8.57168702 C10,8.2550882 10.2789869,8 10.6252473,8 L14.3747527,8 C14.7190344,8 15,8.2550882 15,8.57168702 C15,8.88828584 14.7190344,9.14337404 14.3747527,9.14337404 Z M14.3747527,11 L10.6252473,11 C10.2809656,11 10,10.7449118 10,10.428313 C10,10.1135233 10.2789869,9.85662596 10.6252473,9.85662596 L14.3747527,9.85662596 C14.7190344,9.85662596 15,10.1117142 15,10.428313 C15,10.7431027 14.7190344,11 14.3747527,11 Z" id="形状" fill="#040000"></path>
                    <path d="M7.74945055,12 L5.25054945,12 C4.56263736,12 4,11.5500879 4,11 C4,10.4499121 4.56263736,10 5.25054945,10 L7.74945055,10 C8.43736264,10 9,10.4499121 9,11 C9,11.5518453 8.43736264,12 7.74945055,12 L7.74945055,12 Z" id="路径" fill="#000000"></path>
                    <path d="M5,7.5 C5,8.32842712 5.67157288,9 6.5,9 C7.32842712,9 8,8.32842712 8,7.5 C8,6.67157288 7.32842712,6 6.5,6 C5.67157288,6 5,6.67157288 5,7.5 L5,7.5 Z" id="路径" fill="#000000"></path>
                </g>
            </g>
        </g>
    </g>
</svg>