<?xml version="1.0" encoding="UTF-8"?>
<svg width="33px" height="33px" viewBox="0 0 33 33" version="1.1" xmlns="http://www.w3.org/2000/svg" xmlns:xlink="http://www.w3.org/1999/xlink">
    <title>haoyourenzheng</title>
    <g id="页面-1" stroke="none" stroke-width="1" fill="none" fill-rule="evenodd">
        <g id="首页-自选区页面（认证页面）" transform="translate(-81.000000, -665.000000)" fill="#333333" fill-rule="nonzero">
            <g id="haoyourenzheng" transform="translate(81.000000, 665.000000)">
                <path d="M22.5419031,10.6340999 C22.5419031,6.42574006 19.1042639,3 14.8773071,3 C10.6503502,3 7.21449683,6.42574006 7.21449683,10.6340999 C7.21449683,13.0531063 8.35204289,15.2124254 10.1199716,16.6122475 C5.37692243,18.4265024 2,23.0083852 2,28.3622157 C2,29.817177 3.18754808,31 4.64832151,31 L13.7361894,31 C14.4272889,31 14.9862401,30.4432728 14.9862401,29.7549231 C14.9862401,29.0665735 14.4272889,28.5098463 13.7361894,28.5098463 L4.64832151,28.5098463 C4.56617532,28.5098463 4.50010122,28.4440351 4.50010122,28.3622157 C4.50010122,22.7967221 9.04671387,18.2681997 14.6344401,18.2681997 L15.120174,18.2681997 C15.1719619,18.2681997 15.2219639,18.2646424 15.2719659,18.2575276 C19.3167725,18.0529793 22.5419031,14.7126159 22.5419031,10.6340999 Z M14.8790929,15.778046 C12.0307633,15.778046 9.71459805,13.4710964 9.71459805,10.6340999 C9.71459805,7.79710329 12.0307633,5.49015373 14.8790929,5.49015373 C17.7274225,5.49015373 20.0435877,7.79710329 20.0435877,10.6340999 C20.0435877,13.4710964 17.7256367,15.778046 14.8790929,15.778046 Z M23.2097873,28.7517469 C22.8919173,28.7517469 22.5865478,28.6325753 22.3543955,28.4137975 L19.3453451,25.5981451 C18.8417533,25.1267946 18.8167523,24.3388388 19.2899857,23.8390293 C19.7632192,23.3374412 20.5543226,23.3125397 21.0561287,23.7838902 L23.0847822,25.6817431 L27.7778294,19.9117012 C28.2117755,19.3780968 28.9993074,19.2944988 29.5368292,19.728497 C30.0725651,20.1607166 30.1564971,20.945115 29.7207652,21.480498 L24.1812552,28.2928472 C23.9630101,28.5619491 23.6420164,28.7282533 23.295505,28.7517469 L23.2097873,28.7517469 L23.2097873,28.7517469 Z" id="形状"></path>
            </g>
        </g>
    </g>
</svg>