<?xml version="1.0" encoding="UTF-8"?>
<svg width="18px" height="18px" viewBox="0 0 18 18" version="1.1" xmlns="http://www.w3.org/2000/svg" xmlns:xlink="http://www.w3.org/1999/xlink">
    <title>编组 14</title>
    <g id="页面-1" stroke="none" stroke-width="1" fill="none" fill-rule="evenodd">
        <g id="订单页面--请付款（交易安全保障弹窗）" transform="translate(-59.000000, -487.000000)">
            <g id="编组-11" transform="translate(12.000000, 479.000000)">
                <g id="编组-14" transform="translate(47.000000, 8.000000)">
                    <path d="M16,7.99997054 C16,3.58878679 12.4112,0 8,0 C3.58880001,0 0,3.58878679 0,7.99997054 C0,10.2207624 0.934399994,12.3495545 2.5608,13.860749 L2.564,13.8639489 C2.5848,13.8831489 2.6024,13.9047488 2.624,13.9239487 C2.63679999,13.9351487 2.65279999,13.9391487 2.6664,13.9487486 C2.70800001,13.9807485 2.7504,14.0071484 2.80000001,14.0279483 C2.82565295,14.0376632 2.85182677,14.0459427 2.87840001,14.0527483 C2.908,14.0607482 2.93360001,14.0767482 2.96559999,14.0799482 C2.98639999,14.0815482 3.00479999,14.0743482 3.0248,14.0743482 C3.0544,14.0743482 3.08160001,14.0695482 3.1112,14.0655482 C3.15910102,14.0598674 3.206121,14.048314 3.2512,14.0311483 C3.27600001,14.0215484 3.2976,14.0071484 3.3208,13.9943485 C3.36670143,13.9692857 3.40895963,13.9380632 3.4464,13.9015488 C3.4544,13.8935489 3.46480001,13.8911489 3.47200001,13.8823489 C3.48320001,13.8703489 3.4864,13.854349 3.49600001,13.841549 C3.52665375,13.8022745 3.55219169,13.7592634 3.572,13.7135495 C3.58489136,13.6819403 3.5950616,13.6492886 3.6024,13.6159499 C3.608,13.59115 3.62160001,13.57035 3.6248,13.5447501 C3.85568399,11.301114 5.7485134,9.59708969 8.00399999,9.60236465 C10.139057,9.60151003 11.9636527,11.1401937 12.3232,13.2447512 C11.1074547,14.2512044 9.57828713,14.8012952 8,14.7999455 C6.99446967,14.8026425 6.00109766,14.5801323 5.0928,14.1487479 C4.79742871,14.027595 4.4588851,14.158607 4.32201608,14.4470313 C4.18514707,14.7354557 4.29775598,15.0805562 4.5784,15.2327439 C5.64724741,15.7410218 6.81645763,16.0031842 8,15.9999708 C9.93711707,15.9996807 11.8076214,15.2928397 13.2608,14.0119484 C13.3416364,13.96716 13.4109328,13.9041634 13.4632,13.8279491 C15.0208,12.3671545 16,10.2983621 16,7.99997054 Z M8,8.39996907 C6.8976,8.39996907 6,7.50237238 6,6.3999838 C6,5.2975805 6.8976,4.3999838 8,4.3999838 C9.1024,4.3999838 10,5.2975805 10,6.3999838 C10,7.50237238 9.1024,8.39996907 8,8.39996907 Z M10.0888,8.80396758 C10.7914009,8.20253307 11.1971014,7.32483287 11.2,6.39997644 C11.2,4.63518294 9.7648,3.19999558 8,3.19999558 C6.2352,3.19999558 4.80000001,4.63518294 4.80000001,6.39997644 C4.80000001,7.3639729 5.2368,8.21916974 5.9136,8.80636758 C4.38717526,9.41805109 3.20815504,10.6717067 2.69120001,12.232755 C1.72973449,11.0310753 1.20405868,9.53893989 1.19999999,7.99997054 C1.19999999,4.25038435 4.2504,1.19999558 8,1.19999558 C11.7496,1.19999558 14.8000002,4.25038435 14.8000002,7.99997054 C14.8003556,9.53802039 14.27633,11.0302321 13.3144,12.230355 C12.7961659,10.6689931 11.6160659,9.41543419 10.0888,8.80396758 Z" id="形状" fill="#000000" fill-rule="nonzero"></path>
                    <circle id="椭圆形" stroke="#F3F6FC" fill="#000000" cx="14" cy="14" r="3.5"></circle>
                    <polyline id="路径-9" stroke="#F3F6FC" stroke-width="0.8" points="12.1261631 13 14 15 16 13"></polyline>
                </g>
            </g>
        </g>
    </g>
</svg>