<?xml version="1.0" encoding="UTF-8"?>
<svg width="17px" height="17px" viewBox="0 0 17 17" version="1.1" xmlns="http://www.w3.org/2000/svg" xmlns:xlink="http://www.w3.org/1999/xlink">
    <title>shoujirenzheng</title>
    <g id="页面-1" stroke="none" stroke-width="1" fill="none" fill-rule="evenodd">
        <g id="订单页面--请付款（交易安全保障弹窗）" transform="translate(-179.000000, -486.000000)" fill="#000000" fill-rule="nonzero">
            <g id="编组-12" transform="translate(133.000000, 479.000000)">
                <g id="shoujirenzheng" transform="translate(46.000000, 7.000000)">
                    <path d="M7.77329141,12.6507663 L2.15770313,12.6507663 L2.15770313,2.20252101 L10.8422969,2.20252101 L10.8422969,7.37555622 C11.2081747,7.22429571 11.5977164,7.11841336 12,7.05790916 L12,2.20252101 C12,1.53886555 11.6741685,1 11.0352474,1 L2.15770313,1 C1.51878206,1 1,1.53886555 1,2.20252101 L1,15.0142117 C1,15.6778671 1.51878206,16.2167327 2.15770313,16.2167327 L10.2943902,16.2167327 C8.99834519,15.48501 8.05179547,14.1860604 7.77329141,12.6507663 Z M6.67201721,15.7326991 C6.03309614,15.7326991 5.43240113,15.1087495 5.43240113,14.445094 C5.43240113,13.7814386 6.03309614,13.157489 6.67201721,13.157489 C7.31093828,13.157489 7.91163329,13.7814386 7.91163329,14.445094 C7.91163329,15.1087495 7.31275856,15.7326991 6.67201721,15.7326991 Z" id="形状"></path>
                    <path d="M12.5,8.21673269 C10.5665611,8.21673269 9,9.78329453 9,11.7167327 C9,13.6501708 10.5665611,15.2167327 12.5,15.2167327 C14.4334357,15.2167327 16,13.6501708 16,11.7167327 C16.0018312,9.78512891 14.4334357,8.21673269 12.5,8.21673269 Z M11.7790868,13.9436719 L10.0107438,12.1845 L10.8343807,11.3571939 L11.7809212,12.2982316 L14.0830689,10.0070891 L14.9067059,10.8343952 L11.7790868,13.9436719 Z" id="形状"></path>
                </g>
            </g>
        </g>
    </g>
</svg>