<?xml version="1.0" encoding="UTF-8"?>
<svg width="23px" height="23px" viewBox="0 0 23 23" version="1.1" xmlns="http://www.w3.org/2000/svg" xmlns:xlink="http://www.w3.org/1999/xlink">
    <title>huankuanyewu</title>
    <g id="页面-1" stroke="none" stroke-width="1" fill="none" fill-rule="evenodd">
        <g id="订单页面--请付款（交易安全保障弹窗）" transform="translate(-10.000000, -635.000000)" fill-rule="nonzero">
            <g id="huankuanyewu" transform="translate(10.000000, 635.000000)">
                <path d="M4.28980611,21 C3.02878966,21 2,19.9245283 2,18.6035151 L2,12.5386405 C2,11.2176273 3.0262926,10.1421556 4.28980611,10.1421556 C5.55331962,10.1421556 6.57961222,11.2176273 6.57961222,12.5386405 L6.57961222,18.6059705 C6.57961222,19.9245283 5.55331962,21 4.28980611,21 Z M4.28980611,11.4656242 C3.77790834,11.4656242 3.34841363,11.9567072 3.34841363,12.5361851 L3.34841363,18.6035151 C3.34841363,19.1854484 3.78040541,19.674076 4.28980611,19.674076 C4.80170388,19.674076 5.23369565,19.182993 5.23369565,18.6035151 L5.23369565,12.5386405 C5.23369565,11.9567072 4.80170388,11.4656242 4.28980611,11.4656242 Z M14.2880435,11.269191 C11.6886016,11.269191 9.57608696,9.18945464 9.57608696,6.63582321 C9.57608696,4.08219178 11.6886016,2 14.2880435,2 C16.8874853,2 19,4.07973637 19,6.6333678 C19,9.18699922 16.8874853,11.269191 14.2880435,11.269191 L14.2880435,11.269191 Z M14.2880435,3.3234686 C12.4327262,3.3234686 10.9220035,4.80899457 10.9220035,6.6333678 C10.9220035,8.45774102 12.4327262,9.94326699 14.2880435,9.94326699 C16.1433608,9.94326699 17.6540834,8.45774102 17.6540834,6.6333678 C17.6540834,4.80899457 16.1433608,3.3234686 14.2880435,3.3234686 L14.2880435,3.3234686 Z" id="形状" fill="#040000"></path>
                <path d="M12.9368512,13.394148 L6.65534411,13.394148 C6.29369629,13.394148 6.00000914,13.0817556 6.00000914,12.697074 C6.00000914,12.3123924 6.29369629,12 6.65534411,12 L12.9368512,12 C13.298499,12 13.5921861,12.3123924 13.5921861,12.697074 C13.5921861,13.0843373 13.298499,13.394148 12.9368512,13.394148 Z M12.0218094,21 C11.9489944,21 11.8786065,20.9870912 11.8082187,20.9612737 L6.44175345,18.9939759 C6.09952297,18.8674699 5.91748548,18.4724613 6.03641664,18.1084337 C6.15292063,17.7444062 6.52427712,17.5507745 6.86893477,17.6772806 L11.9756932,19.5490534 L20.4756305,15.0129088 C20.3469906,14.9277108 20.177089,14.8580034 20.0071873,14.8580034 C18.982923,14.8580034 15.5800355,15.908778 15.1091652,16.0765921 C15.0436317,16.0998279 14.9732439,16.1127367 14.9028561,16.1127367 L10.1892986,16.1127367 C9.8276508,16.1127367 9.53396364,15.8003442 9.53396364,15.4156627 C9.53396364,15.0309811 9.8276508,14.7185886 10.1892986,14.7185886 L14.8033422,14.7185886 C15.4465414,14.5094664 18.7450607,13.4638554 20.0047602,13.4638554 C20.8736858,13.4638554 21.7911547,14.1247849 21.9683379,14.8786575 C22.0799876,15.348537 21.8906686,15.8003442 21.4901861,16.0275387 L12.3154965,20.9251291 C12.2232642,20.9767642 12.1237504,21 12.0218094,21 Z" id="形状" fill="#040000"></path>
                <path d="M14.4743402,8.99174766 L12.0109971,6.52704933 C11.9963343,6.51237851 11.9963343,6.49037227 12.0109971,6.47570145 L14.4743402,4.01100312 C14.4890029,3.99633229 14.5109971,3.99633229 14.5256598,4.01100312 L16.9890029,6.47570145 C17.0036657,6.49037227 17.0036657,6.51237851 16.9890029,6.52704933 L14.5256598,8.99174766 C14.5109971,9.00275078 14.4890029,9.00275078 14.4743402,8.99174766 Z" id="路径" fill="#000000"></path>
            </g>
        </g>
    </g>
</svg>