<?xml version="1.0" encoding="UTF-8"?>
<svg width="12px" height="12px" viewBox="0 0 12 12" version="1.1" xmlns="http://www.w3.org/2000/svg" xmlns:xlink="http://www.w3.org/1999/xlink">
    <title>shuaxin-2</title>
    <g id="页面-1" stroke="none" stroke-width="1" fill="none" fill-rule="evenodd">
        <g id="首页-自选区页面（广告购买页面）" transform="translate(-186.000000, -348.000000)" fill="#999999" fill-rule="nonzero">
            <g id="shuaxin-2" transform="translate(186.000000, 348.000000)">
                <path d="M5.81632554,1 C7.57650107,1 9.13238977,1.98536582 9.97255529,3.47097553 L10.7026649,3.2875609 C10.7824805,3.26748424 10.8668429,3.29040779 10.9261843,3.3482972 C10.9855256,3.4061866 11.0115697,3.49096797 10.9951883,3.57292674 L10.5247531,5.93219495 C10.4889142,6.11123086 10.3543699,6.25294272 10.1797194,6.29560958 C10.002494,6.33904741 9.81593908,6.28319515 9.69010239,6.14902422 L7.99850201,4.34292672 C7.93962481,4.27995074 7.91813802,4.18986372 7.94209811,4.10644374 C7.96605819,4.02302376 8.0318451,3.9588745 8.11479205,3.93804868 L8.99380083,3.71682917 C8.29414245,2.65951215 7.1242887,1.97560972 5.81632554,1.97560972 C3.6885776,1.97560972 1.95909305,3.77487795 1.95909305,6 C1.95909305,8.2251217 3.6885776,10.0243899 5.81632554,10.0243899 C6.67092488,10.0248477 7.50040845,9.73043593 8.16922058,9.18926801 C8.3034046,9.07856308 8.48575723,9.04983872 8.646573,9.11407501 C8.80738877,9.17831129 8.92180407,9.32557671 8.94608292,9.49957808 C8.97036177,9.67357945 8.90075042,9.84741458 8.76385827,9.95463384 C7.92581558,10.6319244 6.88690987,11.0004105 5.81656531,11 C3.15388323,11 1,8.75902413 1,6 C1,3.24097553 3.15388323,1 5.81632554,1 Z" id="路径"></path>
            </g>
        </g>
    </g>
</svg>