<svg width="20px" height="20px" viewBox="0 0 20 20" version="1.1" xmlns="http://www.w3.org/2000/svg" xmlns:xlink="http://www.w3.org/1999/xlink">
    <path d="M9.68831169,12.2380952 L7.19480519,12.2380952 C6.85194805,12.2380952 6.57142857,12.5380952 6.57142857,12.9047619 C6.57142857,13.2714286 6.85194805,13.5714286 7.19480519,13.5714286 L9.68831169,13.5714286 C10.0311688,13.5714286 10.3116883,13.2714286 10.3116883,12.9047619 C10.3116883,12.5380952 10.0311688,12.2380952 9.68831169,12.2380952 Z"></path>
    <path d="M12.8051948,7.85714286 L7.19480519,7.85714286 C6.85194805,7.85714286 6.57142857,8.15714286 6.57142857,8.52380952 C6.57142857,8.89047619 6.85194805,9.19047619 7.19480519,9.19047619 L12.8051948,9.19047619 C13.1480519,9.19047619 13.4285714,8.89047619 13.4285714,8.52380952 C13.4285714,8.15714286 13.1480519,7.85714286 12.8051948,7.85714286 Z"></path>
    <path d="M14.5217391,2.35449735 L14.0347826,2.35449735 C13.7565217,1.57566138 12.9913043,1 12.0869565,1 L7.91304348,1 C7.00869565,1 6.24347826,1.57566138 5.96521739,2.35449735 L5.47826087,2.35449735 C3.56521739,2.35449735 2,3.87830688 2,5.74074074 L2,15.8994709 C2,17.7619048 3.56521739,19.2857143 5.47826087,19.2857143 L14.5217391,19.2857143 C16.4347826,19.2857143 18,17.7619048 18,15.8994709 L18,5.74074074 C18,3.87830688 16.4347826,2.35449735 14.5217391,2.35449735 Z M7.91304348,2.35449735 L12.0869565,2.35449735 C12.4695652,2.35449735 12.7826087,2.65925926 12.7826087,3.03174603 C12.7826087,3.4042328 12.4695652,3.70899471 12.0869565,3.70899471 L7.91304348,3.70899471 C7.53043478,3.70899471 7.2173913,3.4042328 7.2173913,3.03174603 C7.2173913,2.65925926 7.53043478,2.35449735 7.91304348,2.35449735 Z M16.6086957,15.8994709 C16.6086957,17.0169312 15.6695652,17.9312169 14.5217391,17.9312169 L5.47826087,17.9312169 C4.33043478,17.9312169 3.39130435,17.0169312 3.39130435,15.8994709 L3.39130435,5.74074074 C3.39130435,4.62328042 4.33043478,3.70899471 5.47826087,3.70899471 L5.96521739,3.70899471 C6.24347826,4.48783069 7.00869565,5.06349206 7.91304348,5.06349206 L12.0869565,5.06349206 C12.9913043,5.06349206 13.7565217,4.48783069 14.0347826,3.70899471 L14.5217391,3.70899471 C15.6695652,3.70899471 16.6086957,4.62328042 16.6086957,5.74074074 L16.6086957,15.8994709 Z"></path>
</svg>