<?xml version="1.0" encoding="UTF-8"?>
<svg width="19px" height="19px" viewBox="0 0 19 19" version="1.1" xmlns="http://www.w3.org/2000/svg" xmlns:xlink="http://www.w3.org/1999/xlink">
    <title>USDT</title>
    <g id="页面-1" stroke="none" stroke-width="1" fill="none" fill-rule="evenodd">
        <g id="首页自选区（我要买购买-按金额购买）" transform="translate(-12.000000, -472.000000)" fill-rule="nonzero">
            <g id="编组-17" transform="translate(0.000000, 460.000000)">
                <g id="USDT" transform="translate(12.000000, 12.000000)">
                    <path d="M19,9.5 C19,14.74685 14.74685,19 9.5,19 C4.25334002,19 0,14.74685 0,9.5 C0,4.25324501 4.25334,0 9.5,0 C14.74685,0 19,4.25324501 19,9.5" id="路径" fill="#1BA27A"></path>
                    <polygon id="路径" fill="#FFFFFF" points="13.958635 4.79047 4.963085 4.79047 4.963085 6.96217001 8.37501001 6.96217001 8.37501001 10.15417 10.54671 10.15417 10.54671 6.96217001 13.958635 6.96217001"></polygon>
                    <path d="M9.48147501,10.494175 C6.65902501,10.494175 4.37076,10.047485 4.37076,9.49639001 C4.37076,8.94539 6.65893,8.49860501 9.48147501,8.49860501 C12.303925,8.49860501 14.592095,8.94539 14.592095,9.49639001 C14.592095,10.047485 12.303925,10.494175 9.48147501,10.494175 M15.21995,9.662735 C15.21995,8.952135 12.65077,8.37615 9.48147501,8.37615 C6.312275,8.37615 3.74290501,8.952135 3.74290501,9.662735 C3.74290501,10.2885 5.73515,10.80986 8.375105,10.92538 L8.375105,15.50761 L10.546615,15.50761 L10.546615,10.927185 C13.2069,10.815275 15.21995,10.29173 15.21995,9.662735" id="形状" fill="#FFFFFF"></path>
                </g>
            </g>
        </g>
    </g>
</svg>