<?xml version="1.0" encoding="UTF-8"?>
<svg width="21px" height="20px" viewBox="0 0 21 20" version="1.1" xmlns="http://www.w3.org/2000/svg" xmlns:xlink="http://www.w3.org/1999/xlink">
    <title>编组 9</title>
    <g id="页面-1" stroke="none" stroke-width="1" fill="none" fill-rule="evenodd">
        <g id="首页-自选区页面（订单买家已付款未催促）" transform="translate(-317.000000, -56.000000)">
            <g id="编组-9" transform="translate(317.222222, 56.000000)">
                <g id="编组-8" transform="translate(1.000000, 1.000000)">
                    <g id="编组-10" stroke="#EEEEEE">
                        <path d="M13.0254527,17 L8.49408481,17 C6.17079872,17 3.9819176,16.0783658 2.36905784,14.3887032 C0.756198073,12.6990406 -0.0886332332,10.4909588 0.00737032434,8.16767271 C0.180176728,3.75150907 3.75150907,0.180176728 8.16767271,0.00737032434 C10.4909588,-0.0886332332 12.7182413,0.756198073 14.3887032,2.36905784 C16.0591651,3.9819176 17,6.151598 17,8.49408481 C17,10.7597688 16.1167673,12.8910477 14.5039075,14.5039075 L14.5039075,15.5215452 C14.5039075,16.3279751 13.8318826,17 13.0254527,17 Z M8.49408481,1.52422653 L8.22527485,1.52422653 C4.61554108,1.65863151 1.67783222,4.59634037 1.54342724,8.20607413 C1.4666244,10.1261453 2.15785001,11.9502129 3.48269911,13.3134634 C4.8075482,14.6959146 6.59321437,15.4447424 8.49408481,15.4447424 L12.9678506,15.4447424 L12.9678506,14.4655061 C12.9678506,14.0814919 13.1214563,13.6974776 13.4094669,13.4094669 C14.734316,12.0846179 15.4639431,10.3373531 15.4639431,8.47488409 C15.4639431,6.57401366 14.7151153,4.78834749 13.3326641,3.46349839 C12.007815,2.21545215 10.2989517,1.52422653 8.49408481,1.52422653 Z" id="形状" stroke-width="0.2" fill="#666666" fill-rule="nonzero"></path>
                        <rect id="矩形备份-6" fill="#FD5656" x="11.5" y="0.5" width="7" height="7" rx="3.5"></rect>
                    </g>
                    <rect id="矩形" fill="#666666" x="4.72222222" y="6.55555556" width="7.55555556" height="1.3" rx="0.65"></rect>
                    <rect id="矩形备份-2" fill="#666666" x="4.72222222" y="9.44444444" width="4.72222222" height="1.3" rx="0.65"></rect>
                </g>
            </g>
        </g>
    </g>
</svg>