<?xml version="1.0" encoding="UTF-8"?>
<svg width="16px" height="15px" viewBox="0 0 16 15" version="1.1" xmlns="http://www.w3.org/2000/svg" xmlns:xlink="http://www.w3.org/1999/xlink">
    <title>编组 3</title>
    <g id="页面-1" stroke="none" stroke-width="1" fill="none" fill-rule="evenodd">
        <g id="首页自选区（我要买）" transform="translate(-61.000000, -389.000000)">
            <g id="编组-6" transform="translate(12.000000, 294.000000)">
                <g id="微信icon" transform="translate(49.250000, 95.000000)">
                    <rect id="矩形" fill="#09BB07" x="0" y="0" width="15" height="15" rx="3"></rect>
                    <g id="weixinzhifu" transform="translate(2.000000, 3.000000)" fill="#FFFFFF" fill-rule="nonzero">
                        <path d="M4.0027082,6.31358263 C3.95216404,6.34020917 3.90040816,6.35291729 3.83757923,6.35291729 C3.69707137,6.35291729 3.58246077,6.27424797 3.51835567,6.15624399 L3.49249707,6.1042819 L2.48566152,3.84623039 C2.47333808,3.81960386 2.47333808,3.79425485 2.47333808,3.76762832 C2.47333808,3.66233246 2.54975373,3.58366314 2.65204088,3.58366314 C2.6902616,3.58366314 2.72845653,3.59635781 2.76667725,3.62298435 L3.95216404,4.48942267 C4.04090314,4.54138477 4.14320318,4.58073288 4.2577751,4.58073288 C4.32186731,4.58073288 4.38474781,4.56802475 4.44884002,4.54138477 L10.0079887,1.99543046 C9.01348946,0.787769005 7.36948296,0 5.50741856,0 C2.47333808,0 0,2.11342099 0,4.72411275 C0,6.14107493 0.739419429,7.42733846 1.89908629,8.29377679 C1.98777382,8.35973798 2.05186604,8.47774196 2.05186604,8.5956787 C2.05186604,8.63501336 2.0395297,8.67434802 2.02600743,8.71368268 C1.93730701,9.06760048 1.78326398,9.64606875 1.78326398,9.67147155 C1.77091475,9.71073897 1.75731514,9.76278175 1.75731514,9.81603482 C1.75731514,9.92133068 1.83374369,10 1.93604373,10 C1.97423866,10 2.01245938,9.98730533 2.03833087,9.96066534 L3.236154,9.23887098 C3.32490599,9.1868282 3.42719314,9.14750699 3.52949318,9.14750699 C3.57997288,9.14750699 3.64407799,9.16020166 3.69462215,9.17413353 C4.25531299,9.34416684 4.86782417,9.43676802 5.49260722,9.43676802 C8.5267006,9.43676802 11,7.32334704 11,4.71265527 C11,3.92488627 10.7708046,3.17768911 10.3752298,2.52063221 L4.04090314,6.28694264 L4.0027082,6.31356918 L4.0027082,6.31358263 Z" id="路径"></path>
                    </g>
                </g>
            </g>
        </g>
    </g>
</svg>