<?xml version="1.0" encoding="UTF-8"?>
<svg width="11px" height="11px" viewBox="0 0 11 11" version="1.1" xmlns="http://www.w3.org/2000/svg" xmlns:xlink="http://www.w3.org/1999/xlink">
    <title>question</title>
    <g id="页面-1" stroke="none" stroke-width="1" fill="none" fill-rule="evenodd">
        <g id="首页-自选区页面（广告购买页面）" transform="translate(-75.000000, -399.000000)" fill="#5E5C5C" fill-rule="nonzero">
            <g id="question" transform="translate(75.000000, 399.000000)">
                <path d="M4.96375,8.25 C4.96375,8.50313051 5.16895282,8.70833334 5.42208334,8.70833334 C5.67521385,8.70833334 5.88041667,8.50313051 5.88041667,8.25 C5.88041667,7.99686949 5.67521385,7.79166666 5.42208334,7.79166666 C5.16895282,7.79166666 4.96375,7.99686949 4.96375,8.25 Z M5.42208334,7.11791666 L5.38541666,7.11791666 C5.2831227,7.10864231 5.18877568,7.05887687 5.12335934,6.97968866 C5.05794299,6.90050046 5.02688153,6.79845564 5.03708334,6.69625 C5.17413421,6.13939201 5.4996285,5.64710213 5.95833334,5.30291666 C6.65041667,4.61083333 6.66416667,4.38625 6.67333334,4.15708334 C6.6859509,3.88084121 6.58299095,3.61181685 6.38916666,3.41458334 C6.157277,3.17260313 5.83511155,3.03809075 5.5,3.04333334 C4.86211111,3.04333334 4.345,3.56044445 4.345,4.19833334 C4.34500001,4.33669933 4.27118263,4.46455478 4.15135417,4.53373777 C4.03152571,4.60292077 3.88389095,4.60292077 3.76406249,4.53373777 C3.64423403,4.46455478 3.57041666,4.33669933 3.57041666,4.19833334 C3.58048801,3.14056275 4.44218459,2.2891001 5.5,2.29166088 C6.04358938,2.29065074 6.56380154,2.51265211 6.93916666,2.90583334 C7.2699503,3.25279018 7.44534029,3.71939373 7.425,4.19833334 C7.3975,4.69791667 7.24625,5.0875 6.48083334,5.84833334 C6.09583334,6.23333334 5.84833334,6.52666667 5.82541666,6.765 C5.81571857,6.96867758 5.6488965,7.12946994 5.445,7.13166666 L5.42208334,7.11791666 Z M8.81833334,8.8275 C7.47510166,10.2041611 5.43148991,10.6293062 3.65067352,9.90255988 C1.86985713,9.17581359 0.707225097,7.44220924 0.710730019,5.51881255 C0.714250818,3.59541586 1.88320753,1.86606989 3.66666666,1.14583334 C5.74863847,0.270756747 8.1587936,0.991192912 9.418988,2.86529956 C10.6791824,4.7394062 10.437117,7.2432593 8.84125,8.84125 L8.81833334,8.8275 Z M5.5,0 C2.46243388,0 0,2.46243388 0,5.5 C0,8.53756612 2.46243388,11 5.5,11 C8.53756612,11 11,8.53756612 11,5.5 C11,4.04130931 10.4205374,2.64236278 9.3890873,1.6109127 C8.35763722,0.579462622 6.95869069,0 5.5,0 Z" id="形状"></path>
            </g>
        </g>
    </g>
</svg>