<svg width="24" height="23" xmlns="http://www.w3.org/2000/svg">
    <path d="M11.772,2.615 C13.946,2.615 15.201,3.38 15.833,4.714 C16.285,5.669 16.381,6.853 16.248,7.846 C16.061,9.236 15.393,10.585 14.404,11.336 C14.049,11.606 13.98,12.113 14.25,12.468 C14.286,12.516 14.329,12.56 14.375,12.599 L19.457,16.84 L19.457,20.379 L4.115,20.379 L4.115,16.839 L9.226,12.55 C9.568,12.264 9.612,11.754 9.325,11.413 C9.289,11.37 9.249,11.331 9.205,11.296 C8.279,10.57 7.531,9 7.417,7.872 C7.314,6.857 7.391,5.764 7.809,4.801 C8.413,3.41 9.626,2.615 11.772,2.615 M11.772,1 C8.984,1 7.188,2.176 6.327,4.158 C5.777,5.427 5.681,6.77 5.809,8.035 L5.825,8.172 C5.98,9.366 6.586,10.792 7.455,11.828 L7.505,11.886 L3.077,15.602 C2.712,15.908 2.5,16.361 2.5,16.838 L2.5,20.379 C2.5,21.271 3.223,21.994 4.115,21.994 L19.457,21.994 C20.348,21.994 21.071,21.271 21.071,20.379 L21.071,16.84 L21.069,16.744 C21.042,16.299 20.833,15.885 20.491,15.6 L16.114,11.947 L16.181,11.873 C17.084,10.844 17.659,9.467 17.849,8.061 C18.02,6.786 17.9,5.305 17.292,4.023 C16.388,2.116 14.561,1 11.772,1" id="Fill-1"></path>
    <path d="M12.5675,14.6241 L12.5675,18.5331 L11.0035,18.5331 L11.0035,14.6241 C11.0035,14.1921 11.3535,13.8421 11.7855,13.8421 C12.2175,13.8421 12.5675,14.1921 12.5675,14.6241 Z" id="Fill-3"></path>
</svg>