<?xml version="1.0" encoding="UTF-8"?>
<svg width="23px" height="23px" viewBox="0 0 23 23" version="1.1" xmlns="http://www.w3.org/2000/svg" xmlns:xlink="http://www.w3.org/1999/xlink">
    <title>编组</title>
    <defs>
        <polygon id="path-1" points="0 0 18.571 0 18.571 20.9939 0 20.9939"></polygon>
    </defs>
    <g id="页面-1" stroke="none" stroke-width="1" fill="none" fill-rule="evenodd">
        <g id="首页标签栏图标" transform="translate(-135.000000, -7.000000)">
            <g id="编组" transform="translate(137.000000, 8.000000)">
                <mask id="mask-2" fill="white">
                    <use xlink:href="#path-1"></use>
                </mask>
                <g id="Clip-2"></g>
                <path d="M9.272,0 C6.484,0 4.688,1.176 3.827,3.158 C3.277,4.427 3.181,5.77 3.309,7.035 L3.325,7.171 C3.48,8.366 4.086,9.792 4.955,10.828 L5.005,10.886 L0.577,14.602 C0.212,14.908 0,15.361 0,15.838 L0,19.379 C0,20.271 0.723,20.994 1.615,20.994 L16.957,20.994 C17.848,20.994 18.571,20.271 18.571,19.379 L18.571,15.839 L18.569,15.744 C18.542,15.299 18.333,14.885 17.991,14.6 L13.614,10.947 L13.681,10.873 C14.584,9.844 15.159,8.467 15.349,7.061 C15.52,5.785 15.4,4.305 14.792,3.023 C13.888,1.116 12.061,0 9.272,0" id="Fill-1" fill="#F55251" mask="url(#mask-2)"></path>
                <path d="M10.0932,13.7268 L10.0932,17.7638 L8.4782,17.7638 L8.4782,13.7268 C8.4782,13.2808 8.8392,12.9188 9.2852,12.9188 C9.7312,12.9188 10.0932,13.2808 10.0932,13.7268 Z" id="Fill-3" fill="#FEFEFE" mask="url(#mask-2)"></path>
            </g>
        </g>
    </g>
</svg>