<?xml version="1.0" encoding="UTF-8"?>
<svg width="16px" height="15px" viewBox="0 0 16 15" version="1.1" xmlns="http://www.w3.org/2000/svg" xmlns:xlink="http://www.w3.org/1999/xlink">
    <title>zhifubaozhifu</title>
    <g id="页面-1" stroke="none" stroke-width="1" fill="none" fill-rule="evenodd">
        <g id="首页自选区（我要买）" transform="translate(-36.000000, -389.000000)" fill="#5173FF" fill-rule="nonzero">
            <g id="编组-6" transform="translate(12.000000, 294.000000)">
                <g id="支付宝icon" transform="translate(24.625000, 95.000000)">
                    <path d="M15,10.269 L15,2.88375 C14.9991721,1.29114906 13.7081657,0.000413770027 12.1156442,0 L2.88360582,0 C1.29137721,0.000827603191 0.000827561813,1.29144178 0,2.88375 L0,12.11625 C0.000413986764,13.7087296 1.29120581,14.999586 2.88360582,15 L12.1156442,15 C13.5116382,14.9990019 14.706987,13.9993549 14.9550022,12.6255 C14.1900405,12.294 10.8752062,10.863 9.1480426,10.038 C7.83410829,11.63025 6.45717714,12.58575 4.38278086,12.58575 C2.30838458,12.58575 0.92320384,11.30775 1.08969552,9.74325 C1.19919004,8.71725 1.90340483,7.0395 4.96100195,7.32675 C6.57342133,7.47825 7.31063447,7.779 8.62531873,8.21325 C8.96505175,7.58925 9.24778761,6.903 9.46227689,6.17325 L3.63356832,6.17325 L3.63356832,5.59575 L6.5179241,5.59575 L6.5179241,4.55775 L2.99985001,4.55775 L2.99985001,3.9225 L6.51717414,3.9225 L6.51717414,2.42625 C6.51717414,2.42625 6.54867257,2.19225 6.80740963,2.19225 L8.24958752,2.19225 L8.24958752,3.9225 L11.9994,3.9225 L11.9994,4.5585 L8.24958752,4.5585 L8.24958752,5.595 L11.3086846,5.595 C11.044829,6.68735164 10.6263779,7.73643617 10.0659967,8.7105 C10.9547023,9.033 14.99925,10.269 14.99925,10.269 L15,10.269 Z M4.15329234,11.59575 C1.96115194,11.59575 1.61466927,10.212 1.73091345,9.63375 C1.84565772,9.05775 2.48087596,8.30625 3.69956502,8.30625 C5.09974501,8.30625 6.35443228,8.66475 7.86035698,9.39825 C6.80290985,10.77525 5.50322484,11.59575 4.15329234,11.59575 L4.15329234,11.59575 Z" id="形状"></path>
                </g>
            </g>
        </g>
    </g>
</svg>